<?xml version="1.0" standalone="no"?>
<!DOCTYPE svg PUBLIC "-//W3C//DTD SVG 1.1//EN" "http://www.w3.org/Graphics/SVG/1.1/DTD/svg11.dtd" >
<svg xmlns="http://www.w3.org/2000/svg">
<metadata></metadata>
<defs>
<font id="minion_webregular" horiz-adv-x="966" >
<font-face units-per-em="2048" ascent="1638" descent="-410" />
<missing-glyph horiz-adv-x="491" />
<glyph horiz-adv-x="2048" />
<glyph horiz-adv-x="2048" />
<glyph unicode="&#xd;" horiz-adv-x="491" />
<glyph unicode=" "  horiz-adv-x="491" />
<glyph unicode="&#x09;" horiz-adv-x="491" />
<glyph unicode="&#xa0;" horiz-adv-x="491" />
<glyph unicode="!" horiz-adv-x="528" d="M123 127q0 65 40.5 107t100.5 42t101 -42t41 -107q0 -68 -40 -110t-102 -42q-61 0 -101 42t-40 110zM143 1284q0 61 117 62q119 0 119 -62q0 -53 -20 -247t-50 -638q-10 -11 -51 -11q-9 0 -17.5 1t-15 2.5t-9.5 4t-12 138.5l-21 280q-10 144 -21 260q-18 180 -19 210z " />
<glyph unicode="&#x22;" horiz-adv-x="735" d="M78 1386q0 55 112 56q113 0 113 -56q0 -13 -72 -522q-10 -9 -41 -9q-32 0 -43 9q-70 510 -69 522zM434 1386q0 55 113 56q113 0 112 -56q0 -13 -71 -522q-10 -9 -41 -9q-32 0 -43 9q-70 510 -70 522z" />
<glyph unicode="#" horiz-adv-x="970" d="M25 373l20 139h213l61 293h-200l20 139h207l68 332h112l-67 -332h194l68 332h115l-68 -332h186l-24 -139h-191l-59 -293h178l-20 -139h-187l-76 -373h-114l78 373h-197l-78 -373h-112l75 373h-202zM373 512h194l60 295h-195z" />
<glyph unicode="$" d="M76 358l86 25q81 -265 287 -291v486q-205 84 -265.5 166.5t-60.5 189.5q0 127 86 222t240 116v160h96v-156q96 0 186 -29q15 -6 60 -10q28 -138 45 -262l-86 -19q-50 204 -205 230v-443q203 -67 274.5 -157.5t71.5 -212.5q0 -147 -90.5 -245t-255.5 -122v-176h-96v170 q-173 0 -314 84q-30 111 -59 274zM270 995q1 -142 179 -215v406q-178 -29 -179 -191zM545 94q184 37 184 209q0 90 -41.5 144.5t-124.5 91.5l-18 8v-453z" />
<glyph unicode="%" horiz-adv-x="1671" d="M86 903q0 157 83.5 277t225.5 120t227 -120.5t85 -276.5q0 -158 -84 -278.5t-228 -120.5q-142 0 -225.5 121t-83.5 278zM250 903q0 -137 38.5 -223t110.5 -86q73 0 110.5 84t37.5 225q0 90 -17 161.5t-50 108.5t-81 37q-73 0 -111 -85.5t-38 -221.5zM391 -23l780 1350 l89 -55l-781 -1354zM967 373q0 156 84 276.5t225 120.5t225 -121.5t84 -277.5q0 -155 -83.5 -275.5t-225.5 -120.5q-141 0 -225 121t-84 277zM1130 373q0 -136 38 -221.5t110 -85.5q73 0 110 83t37 224q0 90 -16.5 161t-49.5 108.5t-81 37.5q-72 0 -110 -86t-38 -221z" />
<glyph unicode="&#x26;" horiz-adv-x="1366" d="M92 332q0 110 63.5 199.5t241.5 203.5q-158 130 -157 269q0 133 97.5 227t231.5 94q124 0 209.5 -81t85.5 -204q0 -45 -21 -86t-44.5 -63.5t-165.5 -124.5q173 -135 295 -274q36 48 69.5 122t33.5 107q0 30 -26.5 41t-95.5 16v80h463v-80q-76 -6 -115.5 -22t-65.5 -46 t-93.5 -136.5t-102.5 -157.5q212 -256 301 -426l-22 -29q-69 7 -143 37t-93 56l-40 59q-70 102 -103 139q-102 -142 -204.5 -210.5t-223.5 -68.5q-168 0 -271.5 107.5t-103.5 251.5zM270 391q0 -126 78.5 -200t190.5 -74q160 0 295 215q-134 174 -371 344 q-193 -118 -193 -285zM395 1065q0 -142 168 -246q137 87 137 232q0 72 -43 125t-112 53t-109.5 -44t-40.5 -120z" />
<glyph unicode="'" horiz-adv-x="380" d="M78 1386q0 55 112 56q113 0 113 -56q0 -13 -72 -522q-10 -9 -41 -9q-32 0 -43 9q-70 510 -69 522z" />
<glyph unicode="(" horiz-adv-x="731" d="M131 559q0 278 106 511.5t324 385.5l57 -72q-141 -109 -224 -337t-83 -488q0 -261 83 -490.5t224 -338.5l-57 -70q-212 150 -321 380.5t-109 518.5z" />
<glyph unicode=")" horiz-adv-x="731" d="M113 -270q142 112 224.5 340t82.5 489q0 264 -84 492t-223 333l57 72q212 -150 321 -380.5t109 -516.5q0 -280 -106 -513t-324 -386z" />
<glyph unicode="*" horiz-adv-x="937" d="M90 1167l53 74l267 -186l116 291l90 -21l-69 -301l299 -4v-88l-295 -39l94 -305l-84 -31l-143 291l-275 -178l-45 80l236 200z" />
<glyph unicode="+" horiz-adv-x="1302" d="M117 500v133h458v450h154v-450h457v-133h-457v-500h-154v500h-458z" />
<glyph unicode="," horiz-adv-x="481" d="M76 -201q170 73 170 191q0 54 -36 95.5t-95 57.5q-31 6 -31 58q0 44 33 74t78 30q79 0 147 -73t68 -185q0 -116 -79 -203.5t-220 -132.5z" />
<glyph unicode="-" horiz-adv-x="708" d="M111 393v142h487v-142h-487z" />
<glyph unicode="." horiz-adv-x="481" d="M106 119q0 63 38.5 103t95.5 40q58 0 96.5 -40.5t38.5 -102.5q0 -63 -39 -103.5t-96 -40.5q-56 0 -95 40.5t-39 103.5z" />
<glyph unicode="/" horiz-adv-x="651" d="M35 -94l418 1440h159l-417 -1440h-160z" />
<glyph unicode="0" d="M74 639q0 289 107 475t302 186t301.5 -186.5t106.5 -476.5q0 -289 -107 -475.5t-301 -186.5q-196 0 -302.5 186.5t-106.5 477.5zM264 639q0 -273 56.5 -419t164.5 -146t164 146.5t56 418.5t-56 417.5t-164 145.5q-109 0 -165 -145.5t-56 -417.5z" />
<glyph unicode="1" d="M221 1116v78q165 31 361 106v-1060q0 -105 26.5 -128t157.5 -32v-80h-541v80q127 9 155 27.5t28 132.5v780q0 73 -18 82.5t-169 13.5z" />
<glyph unicode="2" d="M68 0v61q205 202 381 432.5t176 403.5q0 123 -55.5 191.5t-153.5 68.5q-143 0 -252 -184l-72 57l108 149q29 39 71 66.5t94 41t106 13.5q144 0 238 -94t94 -245q0 -125 -57 -238t-176 -252l-265 -309h309q81 0 112 21.5t67 109.5l86 -21q-36 -147 -70 -272h-741z" />
<glyph unicode="3" d="M88 94q0 30 34 71.5t61 41.5q16 0 30 -12q60 -55 110.5 -73t102.5 -18q96 0 168 83t72 227q0 137 -73.5 203.5t-174.5 66.5q-71 0 -144 -31l-24 80q340 110 340 275q0 81 -45.5 126.5t-124.5 45.5q-125 0 -217 -168l-72 55l77 113q18 26 60.5 56.5t95 47t107.5 16.5 q135 0 217 -73.5t82 -188.5q0 -71 -48 -125.5t-153 -111.5v-4q132 -26 207.5 -118.5t75.5 -215.5q0 -139 -84 -250.5t-220 -174.5t-235 -63q-74 0 -149.5 36.5t-75.5 82.5z" />
<glyph unicode="4" d="M45 360v66q373 606 561 860h115v-817h188v-109h-188v-133q0 -106 26 -123t142 -24v-80h-524v80q132 8 158 28t26 119v133h-504zM211 469h338v569h-4q-214 -338 -334 -569z" />
<glyph unicode="5" d="M98 94q0 27 33 71t65 44q13 0 23 -10q99 -94 223 -95q105 0 174.5 83t69.5 204q0 152 -82.5 237t-247.5 85q-92 0 -180 -31l72 594h557l16 -21l-49 -141h-434l-41 -305q106 35 178 35q178 0 283.5 -107t105.5 -262q0 -206 -175.5 -353t-360.5 -147q-87 0 -158.5 37.5 t-71.5 81.5z" />
<glyph unicode="6" d="M72 487q0 316 191.5 540.5t576.5 289.5l12 -90q-465 -93 -561 -477q158 74 188 81t58 7q154 0 254 -114.5t100 -287.5q0 -195 -116.5 -328t-293.5 -133t-293 140.5t-116 371.5zM262 496q0 -195 70 -308.5t184 -113.5q193 0 193 291q0 151 -66.5 247.5t-181.5 96.5 q-96 0 -187 -54q-12 -49 -12 -159z" />
<glyph unicode="7" d="M96 981l37 295h750l22 -31q-94 -190 -530 -1249l-185 -21l-18 29q250 424 547 1110h-365q-94 0 -117.5 -20t-52.5 -113h-88z" />
<glyph unicode="8" d="M88 322q0 84 44 159t214 181q-211 108 -211 299q0 135 103.5 237t259.5 102q144 0 237.5 -89t93.5 -218q0 -56 -28.5 -115.5t-173.5 -160.5q139 -80 197.5 -166t58.5 -199q0 -165 -124.5 -271t-279.5 -106q-170 0 -280.5 96t-110.5 251zM260 344q0 -126 69.5 -198 t172.5 -72q95 0 152 61t57 166q0 98 -65.5 174.5t-215.5 145.5q-170 -105 -170 -277zM301 1020q0 -168 242 -262q123 82 123 223q0 100 -55 160.5t-136 60.5q-80 0 -127 -52.5t-47 -129.5z" />
<glyph unicode="9" d="M84 858q0 172 114 307t289 135q180 0 290 -143.5t110 -363.5q0 -274 -127 -470.5t-312 -273t-313 -76.5l-10 84q215 29 363 163t196 345q-181 -82 -202 -87t-40 -5q-156 0 -257 109t-101 276zM266 924q0 -139 70 -230.5t180 -91.5q89 0 176 68q8 56 8 127 q0 188 -61 297.5t-180 109.5q-92 0 -142.5 -78t-50.5 -202z" />
<glyph unicode=":" horiz-adv-x="481" d="M106 770q0 60 38.5 100.5t95.5 40.5t96 -40.5t39 -100.5q0 -66 -38.5 -105.5t-96.5 -39.5q-57 0 -95.5 40t-38.5 105zM109 119q0 62 38 102.5t95 40.5t96 -41t39 -102q0 -62 -38.5 -103t-96.5 -41q-56 0 -94.5 40.5t-38.5 103.5z" />
<glyph unicode=";" horiz-adv-x="481" d="M76 -203q170 70 170 189q0 56 -36 97.5t-95 57.5q-31 10 -31 58q0 44 33 74t78 30q79 0 147 -73t68 -185q0 -116 -79.5 -203.5t-221.5 -132.5zM111 768q0 61 38 102t95 41t96 -41t39 -102q0 -62 -38.5 -102.5t-96.5 -40.5q-56 0 -94.5 40.5t-38.5 102.5z" />
<glyph unicode="&#x3c;" horiz-adv-x="1302" d="M139 506v117l1024 505v-145l-868 -416v-6l868 -416v-145z" />
<glyph unicode="=" horiz-adv-x="1302" d="M117 297v133h1069v-133h-1069zM117 702v134h1069v-134h-1069z" />
<glyph unicode="&#x3e;" horiz-adv-x="1302" d="M139 0v145l869 416v6l-869 416v145l1024 -505v-117z" />
<glyph unicode="?" horiz-adv-x="679" d="M80 1210q0 50 78.5 93t124.5 43q120 0 216.5 -100.5t96.5 -227.5q0 -104 -90 -189q-199 -185 -199 -233q0 -68 84 -141l-55 -70q-80 43 -140.5 118.5t-60.5 145.5q0 63 36.5 117t123.5 125q101 82 130.5 124.5t29.5 78.5q0 45 -27.5 72.5t-69.5 27.5q-80 0 -167 -67 q-25 -19 -31 -19q-19 0 -49.5 34.5t-30.5 67.5zM182 119q0 60 38.5 100.5t94.5 40.5q57 0 96.5 -40.5t39.5 -100.5q0 -62 -38.5 -103t-97.5 -41q-56 0 -94.5 40.5t-38.5 103.5z" />
<glyph unicode="@" horiz-adv-x="1488" d="M90 582q0 333 231.5 548.5t540.5 215.5q249 0 400 -152t151 -373q0 -209 -133.5 -356.5t-333.5 -147.5q-98 0 -98 82q0 26 35 183l-4 2q-62 -92 -173.5 -179.5t-166.5 -87.5q-39 0 -66 43t-27 119q0 121 66 259.5t182.5 212t235.5 73.5q18 0 66 -12q58 -14 108 -15 q-23 -72 -67.5 -281t-44.5 -255q0 -41 37 -41q88 0 173.5 112t85.5 293q0 191 -119 303.5t-313 112.5q-264 0 -431 -175.5t-167 -451.5q0 -245 133 -385.5t389 -140.5q162 1 279 62l33 -87q-162 -90 -381 -90q-275 0 -448 163t-173 446zM606 537q0 -74 39 -74q11 0 36 13.5 t59.5 44.5t85 91t67 104t31.5 97t24 96q-36 20 -108 21q-91 0 -162.5 -146.5t-71.5 -246.5z" />
<glyph unicode="A" horiz-adv-x="1349" d="M51 0v80q87 7 122.5 31t86.5 163l381 1047l86 25l217 -658q115 -342 156.5 -448.5t75 -130t122.5 -29.5v-80h-479v80q65 6 95.5 15t30.5 36q0 17 -34.5 124t-68.5 185h-393q-86 -258 -87 -302q0 -32 30.5 -42t107.5 -16v-80h-449zM483 551h324l-156 500h-4z" />
<glyph unicode="B" horiz-adv-x="1187" d="M86 0v78q124 8 151 35.5t27 150.5v791q0 122 -24.5 149t-139.5 35v80h512q403 0 404 -295q0 -105 -68 -181.5t-182 -109.5v-4q154 -25 243 -116.5t89 -225.5q0 -125 -68 -212t-187.5 -131t-314.5 -44h-442zM438 258q0 -105 34 -135.5t120 -30.5q145 0 223 69.5t78 205.5 q0 145 -93 223t-261 78h-101v-410zM438 758h105q280 0 280 241q0 227 -266 228q-51 0 -78 -6t-34 -16t-7 -44v-403z" />
<glyph unicode="C" horiz-adv-x="1236" d="M100 641q0 311 196.5 508t498.5 197q153 0 311 -46q21 -146 35 -327l-88 -12q-54 286 -301 286h-2q-203 0 -321 -154t-118 -409q0 -280 121.5 -447t312.5 -167q122 0 198.5 69.5t148.5 241.5l88 -21q-70 -274 -97 -335q-173 -51 -327 -52q-307 0 -481.5 190t-174.5 478z " />
<glyph unicode="D" horiz-adv-x="1400" d="M82 0v78q126 9 153 35.5t27 148.5v793q0 122 -25.5 149t-140.5 35v80h498q376 0 541 -174t165 -436q0 -338 -207 -523.5t-591 -185.5h-420zM442 276q0 -113 35 -143.5t131 -30.5q232 0 359 150t127 418q0 557 -514 557q-105 0 -121.5 -14t-16.5 -62v-875z" />
<glyph unicode="E" horiz-adv-x="1150" d="M80 0v80q94 7 128.5 18t45 44.5t10.5 121.5v793q0 87 -10 120.5t-42 45t-116 18.5v78h885q19 -270 23 -303l-89 -10q-28 131 -68.5 174t-184.5 43h-156q-51 0 -56.5 -12.5t-5.5 -51.5v-422h179q89 0 122.5 8.5t45 34t22.5 99.5h88v-398h-88q-13 80 -26 108t-45.5 37 t-118.5 9h-179v-356q0 -86 18.5 -126t64 -49.5t157.5 -9.5q82 0 130 7.5t76.5 27t63 79t58.5 136.5l86 -14q-40 -233 -68 -330h-950z" />
<glyph unicode="F" horiz-adv-x="1071" d="M96 0v80q117 8 142.5 34t25.5 146v799q0 120 -25.5 146.5t-142.5 35.5v78h877q14 -209 22 -307l-86 -8q-30 143 -76 182t-180 39h-145q-45 0 -54.5 -9.5t-9.5 -54.5v-446h195q89 0 122.5 8t45 33.5t22.5 99.5h89v-401h-89q-11 82 -22.5 110.5t-45 37.5t-122.5 9h-195 v-352q0 -86 12.5 -118.5t50.5 -43.5t140 -18v-80h-551z" />
<glyph unicode="G" horiz-adv-x="1325" d="M102 645q0 211 90 370t252 245t355 86q170 0 329 -46q17 -211 33 -325l-88 -8q-22 134 -92.5 208t-218.5 74q-201 0 -325 -151.5t-124 -419.5q0 -272 126.5 -440t355.5 -168q75 0 116 11t52.5 35t11.5 87v182q0 72 -11 98.5t-51 37t-149 20.5v80h506v-80 q-82 -12 -98.5 -30t-16.5 -101v-172q0 -125 10 -193q-233 -72 -383 -72q-305 0 -492.5 184.5t-187.5 487.5z" />
<glyph unicode="H" horiz-adv-x="1476" d="M78 1239v80h520v-80q-111 -8 -135.5 -35t-24.5 -149v-305h588v305q0 122 -25 149t-139 35v80h518v-80q-121 -8 -147.5 -35t-26.5 -149v-791q0 -122 26 -149t146 -35v-80h-530v80q90 5 123.5 17t44 45.5t10.5 121.5v377h-588v-377q0 -88 10.5 -121.5t42 -45.5t115.5 -17 v-80h-520v80q86 5 119 17t43 45.5t10 121.5v791q0 122 -27 149t-153 35z" />
<glyph unicode="I" horiz-adv-x="708" d="M90 0v80q87 5 120.5 17t43.5 45.5t10 121.5v791q0 122 -26.5 149t-147.5 35v80h528v-80q-121 -8 -147.5 -35t-26.5 -149v-791q0 -88 10.5 -121.5t43.5 -45.5t120 -17v-80h-528z" />
<glyph unicode="J" horiz-adv-x="698" d="M49 -264q139 56 182 179t43 429v711q0 122 -27 149t-153 35v80h527v-80q-115 -8 -140.5 -35t-25.5 -149v-797q0 -145 -19 -246t-73 -178t-134.5 -121.5t-148.5 -60.5z" />
<glyph unicode="K" horiz-adv-x="1347" d="M88 1239v80h522v-80q-117 -8 -142.5 -34.5t-25.5 -147.5v-332q44 6 91.5 41.5t144.5 150.5t151.5 190t54.5 94q0 11 -12 20.5t-90 17.5v80h492v-80q-93 -6 -149.5 -31t-97 -62.5t-174 -180t-189.5 -209.5q95 -141 246 -335t198.5 -244.5t88.5 -71.5t101 -25v-80h-305 q-59 69 -259 346q-160 222 -192 260.5t-100 38.5v-385q0 -120 27 -146t152 -34v-80h-521v80q114 8 139 34t25 146v797q0 86 -10.5 120t-44 45.5t-121.5 16.5z" />
<glyph unicode="L" horiz-adv-x="1097" d="M86 0v78q125 9 151.5 35.5t26.5 148.5v793q0 122 -27 149t-151 35v80h539v-80q-126 -8 -153.5 -35t-27.5 -149v-779q0 -130 43 -156t185 -26q84 0 134 14.5t88.5 72t70.5 165.5l88 -12q-36 -224 -68 -334h-899z" />
<glyph unicode="M" horiz-adv-x="1722" d="M63 0v80q106 5 137.5 46.5t59 486t27.5 498.5q0 92 -38.5 107.5t-133.5 20.5v80h368l371 -981l403 981h373v-80q-92 -7 -123.5 -18.5t-39 -43t-7.5 -143.5l13 -737q2 -111 11.5 -149t40 -49.5t124.5 -18.5v-80h-529v80q95 7 126 18.5t39.5 49t8.5 149.5v840h-6 l-442 -1114h-72l-381 1097h-4q-25 -715 -25 -813v-7q0 -118 12.5 -153t50 -49t120.5 -18v-80h-484z" />
<glyph unicode="N" horiz-adv-x="1423" d="M55 1239v80h307l701 -987h6v459q0 349 -35 395.5t-168 52.5v80h500v-80q-138 -3 -160 -72.5t-22 -375.5v-805h-101l-702 1009h-6v-473q0 -303 22.5 -371t182.5 -71v-80h-496v80q133 2 154.5 72t21.5 370v432q0 141 -10 185t-56 69.5t-139 30.5z" />
<glyph unicode="O" horiz-adv-x="1386" d="M102 647q0 288 167.5 493.5t441.5 205.5q240 0 406.5 -188.5t166.5 -479.5q0 -317 -168.5 -511t-429.5 -194q-253 0 -418.5 191t-165.5 483zM317 702q0 -289 108.5 -460.5t297.5 -171.5q169 0 259.5 137t90.5 399q0 317 -105 480t-298 163q-163 0 -258 -142.5t-95 -404.5 z" />
<glyph unicode="P" horiz-adv-x="1134" d="M90 0v80q87 5 120.5 17t43.5 45.5t10 121.5v791q0 90 -8 122.5t-39 44.5t-117 17v80h494q233 0 344 -98.5t111 -272.5q0 -196 -128.5 -313t-340.5 -117l-138 33v-287q0 -122 31 -149t172 -35v-80h-555zM442 657q67 -32 140 -32h4q118 0 190 79t72 232q0 291 -291 291 q-79 0 -97 -12t-18 -56v-502z" />
<glyph unicode="Q" horiz-adv-x="1386" d="M102 647q0 288 167 493.5t442 205.5q239 0 406 -189.5t167 -478.5q0 -250 -105 -425.5t-294 -244.5q207 -163 487 -274l-16 -64q-215 17 -290.5 46t-187.5 97t-243 162q-105 0 -232 77t-214 233t-87 362zM315 702q0 -262 87 -428.5t243 -199.5l98 41l54 -39 q274 68 274 530q0 311 -106 477t-299 166q-160 0 -255.5 -143t-95.5 -404z" />
<glyph unicode="R" horiz-adv-x="1286" d="M86 0v80q125 8 151.5 34t26.5 148v793q0 87 -10 120.5t-42 45t-116 18.5v80h494q442 0 442 -336q0 -239 -237 -354q210 -359 302.5 -460t164.5 -116l-9 -69q-153 0 -233.5 35.5t-153.5 136.5t-207 346q-34 67 -132 67h-3h-82v-307q0 -86 11 -120t43.5 -45.5t119.5 -16.5 v-80h-530zM442 662h97q108 0 169 31t96.5 101t35.5 156q0 133 -78 205t-205 72q-38 0 -65.5 -4.5t-38.5 -14t-11 -53.5v-493z" />
<glyph unicode="S" horiz-adv-x="997" d="M92 369l86 14q99 -313 326 -313q105 0 166 60.5t61 168.5q0 90 -50 158t-198 141q-197 96 -265 188.5t-68 194.5q0 156 113 260.5t296 104.5q118 0 258 -50l39 -288l-88 -13q-36 142 -94.5 197t-151.5 55t-146.5 -54.5t-53.5 -143.5q0 -95 59 -156.5t184 -118.5 q204 -93 273 -190.5t69 -214.5q0 -173 -125 -284.5t-317 -111.5q-144 0 -313 70q-15 47 -60 326z" />
<glyph unicode="T" horiz-adv-x="1220" d="M78 999l22 371h54q30 -51 102 -51h717q35 0 51.5 8.5t42.5 42.5h53q2 -112 21 -364l-88 -7q-27 147 -71.5 185.5t-176.5 38.5h-107v-940q0 -97 12 -134.5t51 -50.5t142 -18v-80h-581v80q99 5 136.5 18t48.5 50.5t11 134.5v940h-94q-139 0 -183 -39.5t-77 -184.5h-86z" />
<glyph unicode="U" horiz-adv-x="1431" d="M70 1239v80h528v-80q-118 -8 -144 -34.5t-26 -145.5v-469q0 -162 32.5 -269.5t102 -163t195.5 -55.5q175 0 253.5 140t78.5 420v120q0 342 -26 397.5t-179 59.5v80h501v-80q-140 0 -161 -72.5t-21 -384.5v-155q0 -375 -143 -514.5t-344 -139.5q-231 0 -350 127t-119 418 v541q0 119 -27 146.5t-151 33.5z" />
<glyph unicode="V" horiz-adv-x="1388" d="M51 1239v80h490v-80q-68 -6 -102.5 -15.5t-34.5 -36.5q0 -9 21 -72l105 -316q86 -255 181 -512h4q156 409 230.5 638t74.5 257q0 32 -35 42t-111 15v80h463v-80q-69 -5 -102.5 -17t-58.5 -44.5t-80 -179.5l-170 -445q-113 -299 -205 -561h-98l-291 844 q-80 226 -100 278.5t-39.5 76t-49 33.5t-92.5 15z" />
<glyph unicode="W" horiz-adv-x="1892" d="M51 1239v80h492v-80q-72 -6 -107.5 -16t-35.5 -41q0 -16 86 -348l132 -521h5q113 385 305 985h92q190 -629 289 -983h4q59 199 137.5 501t78.5 355q0 37 -31 48.5t-105 19.5v80h448v-80q-88 -9 -118 -25.5t-53.5 -74.5t-120.5 -374l-222 -773h-96l-293 977h-4l-307 -977 h-97l-173 647q-121 442 -135 490.5t-42 75.5t-129 34z" />
<glyph unicode="X" horiz-adv-x="1300" d="M31 0v80q136 8 185 64t345 526q-263 441 -307 501.5t-188 67.5v80h499v-80q-57 -6 -81 -14t-24 -28q0 -16 56.5 -118.5t151.5 -244.5q188 316 188 359q0 23 -23 32.5t-75 13.5v80h452v-80q-103 -9 -146 -29.5t-120 -128t-219 -342.5q305 -514 359.5 -583t201.5 -76v-80 h-524v80q57 5 84 13.5t27 28.5q0 13 -37 84l-215 357q-60 -96 -141.5 -241t-91 -167t-9.5 -32q0 -19 25.5 -28.5t80.5 -14.5v-80h-454z" />
<glyph unicode="Y" horiz-adv-x="1255" d="M51 1239v80h475v-80q-62 -6 -92 -15t-30 -30q0 -14 11 -38l97 -187q87 -165 143 -262q227 440 228 483q0 26 -33.5 35t-104.5 14v80h459v-80q-72 -7 -108.5 -23t-66 -53.5t-88 -139t-132.5 -242.5t-86 -170t-12 -72v-279q0 -120 30 -146t170 -34v-80h-571v80 q133 8 161.5 34t28.5 146v258q0 49 -20 90l-151 279q-115 219 -142 263t-58 62t-108 27z" />
<glyph unicode="Z" horiz-adv-x="1171" d="M70 39l757 1184h-262q-174 0 -225.5 -40.5t-85.5 -195.5l-88 2q18 280 22 381h56q18 -34 35.5 -42.5t64.5 -8.5h711l18 -33l-749 -1180q116 -12 292 -12q117 0 198 16.5t125 64t95 185.5l88 -16q-53 -290 -69 -344h-963z" />
<glyph unicode="[" horiz-adv-x="731" d="M223 -328v1772h363v-84q-133 -10 -156.5 -20.5t-36 -30.5t-12.5 -121v-1260q0 -101 12.5 -121t36 -30t156.5 -21v-84h-363z" />
<glyph unicode="\" horiz-adv-x="643" d="M43 1346h160l397 -1440h-160z" />
<glyph unicode="]" horiz-adv-x="731" d="M145 -244q129 8 158.5 19.5t39 34.5t9.5 116v1262q0 101 -11 120.5t-34 30.5t-162 21v84h363v-1772h-363v84z" />
<glyph unicode="^" horiz-adv-x="1302" d="M184 358l406 918h123l405 -918h-160l-311 752l-311 -752h-152z" />
<glyph unicode="_" horiz-adv-x="1024" d="M0 -154h1024v-102h-1024v102z" />
<glyph unicode="`" horiz-adv-x="819" d="M190 1329q0 27 54 55t69 28q14 0 26.5 -8.5t80.5 -104.5l153 -220l-65 -53l-216 189q-86 76 -94 89t-8 25z" />
<glyph unicode="a" horiz-adv-x="976" d="M100 244q0 71 31.5 122t79.5 78t177 76q200 77 220 101v36q0 90 -44 139.5t-120 49.5q-41 0 -84 -30t-79 -146q-16 -51 -64 -52q-34 0 -67 28.5t-33 62.5q0 24 11.5 42.5t36 40t56.5 42t78 44.5t113 49t92 25q117 0 195.5 -66.5t78.5 -199.5v-446q0 -119 62 -119 q27 0 78 24l28 -73l-198 -97q-31 0 -71.5 30.5t-62.5 94.5q-184 -125 -254 -125q-109 0 -184.5 79.5t-75.5 189.5zM289 268q0 -70 45 -112.5t98 -42.5q81 0 176 90v311q-214 -96 -243.5 -112.5t-52.5 -48.5t-23 -85z" />
<glyph unicode="b" horiz-adv-x="1099" d="M25 1321v78q189 26 313 74v-603q165 62 195 72t59 10q171 0 291.5 -129.5t120.5 -312.5q0 -226 -155 -380.5t-374 -154.5q-157 0 -309 72v1124q0 77 -7.5 104.5t-33.5 35t-100 10.5zM338 250q0 -55 18 -84.5t64 -56.5t122 -27q118 0 193.5 99t75.5 272q0 175 -84.5 274.5 t-220.5 99.5q-84 0 -168 -47v-530z" />
<glyph unicode="c" horiz-adv-x="901" d="M96 420q0 146 76.5 270t206.5 193t246 69q58 0 134.5 -27t76.5 -91q0 -32 -29 -68.5t-51 -36.5q-20 0 -35 16q-86 86 -209 86q-96 0 -164.5 -84t-68.5 -241q0 -123 38 -208.5t107 -129t147 -43.5q71 0 122 27t108 86l57 -64q-74 -90 -167.5 -144.5t-176.5 -54.5 q-183 0 -300.5 130.5t-117.5 314.5z" />
<glyph unicode="d" horiz-adv-x="1124" d="M88 430q0 215 156.5 368.5t384.5 153.5q76 0 131 -20v248q0 84 -10 102t-31.5 26t-116.5 11v80q173 25 330 74v-1215q0 -67 9 -89.5t29 -26.5t120 -9v-78q-218 -39 -330 -80v123q-175 -98 -205.5 -110.5t-67.5 -12.5q-150 0 -274.5 127t-124.5 328zM283 485 q0 -172 81.5 -270t198.5 -98q93 0 197 82v567q-57 82 -205 82q-106 0 -189 -91t-83 -272z" />
<glyph unicode="e" horiz-adv-x="927" d="M96 430q0 220 135.5 371t300.5 151q131 0 227.5 -100.5t96.5 -235.5q0 -48 -9 -66.5t-38.5 -24.5t-199.5 -17.5t-343 -18.5q7 -174 96.5 -267t212.5 -93q116 0 209 98l56 -67q-80 -92 -170.5 -138.5t-157.5 -46.5q-185 0 -300.5 129.5t-115.5 325.5zM281 598l337 6 q34 0 44 12t10 43q0 82 -51 138.5t-127 56.5q-75 0 -136.5 -67.5t-76.5 -188.5z" />
<glyph unicode="f" horiz-adv-x="641" d="M74 860l55 68h92v24q0 150 63 269t173.5 185.5t158.5 66.5q67 0 126.5 -37t59.5 -76q0 -26 -24.5 -60.5t-52.5 -34.5q-16 0 -35 15q-72 59 -158 59q-83 0 -111 -92.5t-28 -271.5v-47h234q6 -9 6 -26q0 -48 -29 -73h-211v-600q0 -98 25 -119t151 -32v-78h-487v80 q97 9 118 30.5t21 118.5v600h-135z" />
<glyph unicode="g" horiz-adv-x="1003" d="M70 -252q0 84 74.5 148t134.5 112q-162 60 -162 189q124 55 192 131q-81 33 -132.5 107.5t-51.5 162.5q0 166 115.5 260t255.5 94q39 0 72.5 -6t65.5 -18l62 -27q73 0 273 27l12 -21q-36 -83 -82 -112l-106 8q49 -76 49 -170q0 -151 -108.5 -243.5t-256.5 -92.5l-63 4 q-11 0 -50.5 -32t-39.5 -62q0 -70 118 -70l220 4q139 0 220 -64t81 -188q0 -176 -154 -293.5t-369 -117.5q-168 0 -269 81.5t-101 188.5zM248 -203q0 -92 76 -148.5t200 -56.5q130 0 211.5 69t81.5 165q0 88 -66.5 131t-232.5 43q-135 0 -202.5 -67t-67.5 -136zM313 643 q0 -116 53 -184t140 -68q72 0 117 57.5t45 163.5q0 116 -50 182t-135 66q-77 0 -123.5 -55.5t-46.5 -161.5z" />
<glyph unicode="h" horiz-adv-x="1128" d="M45 1321v78q111 12 320 74v-650q140 129 292 129q129 0 204 -85t75 -232v-406q0 -99 20.5 -120t116.5 -29v-80h-438v80q91 9 110 30.5t19 120.5v344q0 127 -47 185.5t-148 58.5q-48 0 -105 -25t-99 -75v-488q0 -98 20.5 -120t110.5 -31v-80h-445v80q98 9 120 30.5 t22 120.5v938q0 77 -8.5 105t-35 35.5t-104.5 11.5z" />
<glyph unicode="i" horiz-adv-x="589" d="M82 0v80q100 9 121.5 31t21.5 122v400q0 79 -7 107.5t-30.5 38t-95.5 20.5v69q167 30 305 84v-719q0 -101 21.5 -122.5t124.5 -30.5v-80h-461zM190 1296q0 51 35 87t84 36q51 0 86 -35t35 -88q0 -51 -35 -86.5t-86 -35.5q-49 0 -84 36t-35 86z" />
<glyph unicode="j" horiz-adv-x="569" d="M-31 -426q0 54 45 68q103 28 135 65.5t55 160.5t23 392v383q0 102 -20 122.5t-123 33.5v69q190 34 315 84v-710q0 -163 -29.5 -283t-104 -251t-125 -180.5t-89.5 -49.5q-26 0 -54 28.5t-28 67.5zM193 1296q0 52 34.5 87.5t83.5 35.5q51 0 86 -35t35 -88q0 -51 -35 -86.5 t-86 -35.5q-49 0 -83.5 36t-34.5 86z" />
<glyph unicode="k" horiz-adv-x="1085" d="M33 0v80q112 9 136 30.5t24 120.5v938q0 75 -8.5 102.5t-34.5 35.5t-101 12v80q162 20 316 74v-945q73 14 112 49t101.5 125.5t62.5 106.5q0 27 -59 29v80l422 20v-78q-105 -15 -174.5 -53.5t-247.5 -257.5q39 -61 180.5 -226t193.5 -202.5t117 -40.5v-80h-270l-232 286 q-116 141 -134.5 153t-39.5 12q-5 0 -32 -7v-213q0 -99 22.5 -120.5t124.5 -30.5v-80h-479z" />
<glyph unicode="l" horiz-adv-x="559" d="M45 0v80q102 9 125 30.5t23 120.5v940q0 76 -8 102.5t-34 35t-102 12.5v78q99 10 316 74v-1242q0 -100 21.5 -121t125.5 -30v-80h-467z" />
<glyph unicode="m" horiz-adv-x="1720" d="M74 0v80q106 9 128.5 30t22.5 119v412q0 108 -15.5 127.5t-109.5 32.5v69q179 33 295 84v-151q81 63 163 106t159 43q70 0 133.5 -41.5t91.5 -109.5q96 74 171.5 112.5t148.5 38.5q122 0 194 -78.5t72 -209.5v-433q0 -97 20.5 -119.5t108.5 -31.5v-80h-434v80 q92 9 112.5 30t20.5 115v363q0 114 -40.5 171.5t-137.5 57.5q-92 0 -217 -112l2 -52v-422q0 -112 26 -128.5t98 -22.5v-80h-436v80q95 9 117.5 31t22.5 120v363q0 118 -41 170.5t-132 52.5q-94 0 -221 -117v-469q0 -98 18 -120t99 -31v-80h-440z" />
<glyph unicode="n" horiz-adv-x="1155" d="M78 0v80q87 6 117 24.5t30 124.5v420q0 100 -17.5 120.5t-107.5 31.5v69q175 33 297 84v-147q182 145 297 145q125 0 197 -77t72 -207v-437q0 -98 20.5 -120t108.5 -31v-80h-424v80q85 9 104 29.5t19 111.5v365q0 121 -40.5 176t-127.5 55q-105 0 -226 -119v-467 q0 -99 19.5 -120.5t107.5 -30.5v-80h-446z" />
<glyph unicode="o" horiz-adv-x="1083" d="M94 436q0 156 60.5 272.5t166.5 180t222 63.5q193 0 317.5 -135.5t124.5 -339.5q0 -226 -131 -364t-311 -138q-199 0 -324 137t-125 324zM295 520q0 -207 73.5 -326.5t200.5 -119.5q118 0 168.5 87t50.5 267q0 203 -69 314.5t-199 111.5q-105 0 -165 -87t-60 -247z" />
<glyph unicode="p" horiz-adv-x="1124" d="M55 -420q105 8 128.5 30.5t23.5 123.5v919q0 108 -18 128t-117 28v72q67 9 307 92v-137q216 102 234 109t51 7q160 0 263 -119.5t103 -285.5q0 -92 -25.5 -175t-75.5 -154t-123.5 -124.5t-164.5 -86t-125 -32.5q-23 0 -65.5 10.5t-71.5 28.5v-293q0 -93 26 -113t156 -28 v-78h-506v78zM379 184q70 -82 196 -82q110 0 188.5 96.5t78.5 274.5q0 165 -69.5 253.5t-192.5 88.5q-42 0 -99.5 -21t-101.5 -55v-555z" />
<glyph unicode="q" horiz-adv-x="1099" d="M96 418q0 225 166 379.5t406 154.5q25 0 127 -30q46 -12 59 -13q19 0 74 25l16 -6q-6 -121 -6 -223v-973q0 -99 22 -121.5t123 -30.5v-78h-495v78q128 8 153 28t25 116v327l-211 -76q-211 0 -335 132.5t-124 310.5zM291 492q0 -183 91.5 -285.5t233.5 -102.5q74 1 150 46 v620q-73 72 -199 72q-115 0 -195.5 -94.5t-80.5 -255.5z" />
<glyph unicode="r" horiz-adv-x="808" d="M82 0v80q100 9 121.5 30.5t21.5 120.5v412q0 105 -17.5 126.5t-111.5 33.5v69q172 33 301 82v-217h4q52 98 120.5 156.5t131.5 58.5q49 0 85 -34.5t36 -75.5q0 -51 -31.5 -85t-65.5 -34q-19 0 -30 12q-39 39 -82 39q-30 0 -64 -27t-69 -90t-35 -84v-344q0 -98 24.5 -119 t147.5 -30v-80h-487z" />
<glyph unicode="s" horiz-adv-x="837" d="M100 313l78 15q28 -112 96.5 -184t149.5 -72q60 0 101.5 35.5t41.5 95.5q0 123 -161 190q-143 58 -205 126t-62 153q0 120 93.5 200t238.5 80q98 0 184 -39q32 -62 56 -235l-82 -19q-76 197 -203 197q-57 0 -93 -35.5t-36 -89.5q0 -99 176 -170q270 -105 270 -297 q0 -130 -106.5 -209.5t-249.5 -79.5q-50 0 -99 11.5t-88.5 29.5t-64.5 36q-14 11 -26 108q-8 70 -9 153z" />
<glyph unicode="t" horiz-adv-x="665" d="M53 860l60 68h94v135l133 137l39 -2v-270h221q10 -13 10 -37q0 -41 -24 -62h-207v-536q0 -190 110 -191q51 0 117 29l27 -76q-143 -61 -171.5 -70.5t-60.5 -9.5q-93 0 -143.5 66t-50.5 190v598h-139z" />
<glyph unicode="u" horiz-adv-x="1136" d="M80 827v74q99 4 305 39q-6 -93 -6 -301v-301q0 -113 41 -169t133 -56q96 0 217 106v479q0 59 -10.5 84t-33.5 31t-116 16v74q226 12 332 37v-704q0 -71 16 -90t68 -19h66v-78q-94 -10 -306 -74l-16 13v127q-174 -139 -307 -140q-121 0 -188.5 78.5t-67.5 227.5v415 q0 58 -9.5 83t-27 31t-90.5 17z" />
<glyph unicode="v" horiz-adv-x="991" d="M18 848v80h426v-80q-49 -2 -71.5 -12t-22.5 -35q0 -18 11 -50l73 -219q61 -186 94 -292q146 392 170.5 464.5t24.5 90.5q0 26 -22.5 36.5t-73.5 16.5v80h383v-80q-61 -5 -92 -19.5t-53 -53.5t-131 -294t-197 -495h-93l-161 467q-97 271 -111.5 306.5t-39 58t-114.5 30.5z " />
<glyph unicode="w" horiz-adv-x="1402" d="M20 848v80h431v-80q-60 -8 -86 -20.5t-26 -43.5q0 -19 38 -160l94 -372h4q142 421 232 666h86l213 -666h4q143 482 143 536q0 33 -28 43t-93 17v80h391v-80q-68 -9 -92 -29t-43 -65t-107 -297t-157 -471h-92l-219 665l-236 -665h-92l-129 446q-69 238 -91.5 305t-48 85 t-96.5 26z" />
<glyph unicode="x" horiz-adv-x="1005" d="M33 0v80q90 11 126 30.5t75.5 70t97 130t100.5 146.5q-177 287 -196 315t-56.5 47.5t-120.5 28.5v80h420v-80q-66 -9 -66 -39q0 -17 15 -43l102 -166q101 171 108 189.5t7 27.5q0 24 -57 31v80h383v-80q-65 -3 -115.5 -18.5t-123.5 -110t-144 -209.5q203 -314 224 -343 t55.5 -52t138.5 -35v-80h-453v80q82 12 82 39q0 15 -20 45l-126 198q-134 -205 -134 -240q0 -30 73 -42v-80h-395z" />
<glyph unicode="y" horiz-adv-x="980" d="M27 848v80h430v-80q-50 -7 -73 -19t-23 -37q0 -12 45 -149l126 -389q200 483 200 539q0 26 -26.5 37t-80.5 18v80h399v-80q-77 -12 -106 -32t-70.5 -96t-153.5 -336.5t-206 -495t-126 -355.5q-13 -55 -77 -55q-49 0 -90 36t-41 76q0 47 51 80q80 55 150.5 179t70.5 178 q0 24 -27 102l-85 251q-58 172 -94.5 273.5t-52.5 130t-47.5 44t-92.5 20.5z" />
<glyph unicode="z" horiz-adv-x="905" d="M80 31l169 264l335 536h-172q-65 0 -102.5 -16.5t-59.5 -50t-64 -129.5l-84 27q38 143 68 311h47q14 -45 105 -45h481l20 -31q-288 -449 -501 -801h190q98 0 154.5 25t124.5 168l83 -31q-42 -137 -90 -258h-686z" />
<glyph unicode="{" horiz-adv-x="733" d="M131 514v86q80 6 119 32t49 60t10 80q0 23 -14 180q-12 147 -12 246q0 128 74 193t243 65v-84q-72 -9 -117 -46.5t-45 -127.5q0 -44 15 -178l22 -223q0 -191 -158 -234v-8q158 -42 158 -240q0 -11 -22 -221q-14 -138 -15 -176q0 -92 45 -130t117 -46v-84 q-173 0 -245 65.5t-72 192.5q0 98 12 246q14 158 14 182q0 45 -10 78.5t-49 59.5t-119 32z" />
<glyph unicode="|" horiz-adv-x="526" d="M184 -512v2048h160v-2048h-160z" />
<glyph unicode="}" horiz-adv-x="733" d="M133 -258q72 9 117 46.5t45 127.5q0 44 -14 178q-23 210 -23 221q0 196 158 238v8q-158 42 -158 238l23 223q14 138 14 176q0 90 -44.5 128.5t-117.5 47.5v84q170 0 244 -65t74 -193q0 -98 -13 -246q-14 -158 -14 -182q0 -46 10 -80t49.5 -60t120.5 -32l-2 -86 q-80 -6 -119 -32t-49 -59.5t-10 -78.5q0 -25 14 -182q12 -145 13 -244q0 -128 -73 -194t-245 -66v84z" />
<glyph unicode="~" horiz-adv-x="1302" d="M145 510q141 211 316 211q52 0 100.5 -12.5t153.5 -65.5q112 -57 188 -57q112 0 191 147l92 -78q-116 -209 -305 -209q-110 0 -275 89q-95 49 -160 49q-116 0 -210 -154z" />
<glyph unicode="&#xa1;" horiz-adv-x="528" d="M121 770q0 68 40 110t101 42t101 -42t40 -110q0 -65 -40 -107t-101 -42q-60 0 -100.5 42t-40.5 107zM147 -391q0 52 19.5 228.5t50.5 656.5q9 11 49 10q9 0 18 -0.5t15.5 -2.5t10 -4t13.5 -129l18 -282q10 -145 21 -259q20 -200 21 -218q0 -34 -26.5 -48t-90.5 -14 q-65 0 -92 14t-27 48z" />
<glyph unicode="&#xa2;" d="M92 606q0 115 51 215.5t144.5 174t204.5 102.5v176h96v-168q4 2 26 2q74 0 135 -17.5t76 -37t15 -45.5q0 -34 -23 -64.5t-56 -30.5q-11 0 -32 21q-68 62 -141 67v-677q117 3 231 122l55 -61q-137 -169 -286 -197v-206h-96v200q-178 10 -289 137.5t-111 286.5zM266 680 q0 -142 61 -233.5t165 -116.5v674q-85 -11 -155.5 -101.5t-70.5 -222.5z" />
<glyph unicode="&#xa3;" d="M47 44q0 37 153 165q135 109 135 272q0 78 -17 113h-235v94h211q-61 176 -62 230q0 88 54 177t151 147t144 58q69 0 133 -35.5t64 -73.5q0 -32 -29 -62.5t-47 -30.5q-16 0 -29 12q-71 63 -164 64q-53 0 -88 -41t-35 -103q0 -117 107 -342h272v-94h-254q4 -8 4 -47 q0 -174 -188 -340q97 -25 153 -45q140 -49 228 -49q90 0 90 63q0 15 -17 70q-6 17 -6 30q0 25 29.5 52.5t60.5 27.5q29 0 47.5 -31.5t18.5 -64.5q0 -92 -100 -187.5t-236 -95.5q-109 0 -291 86q-61 31 -86 31q-17 0 -35 -22.5t-26 -59.5q-6 -27 -39 -26q-25 0 -48 18t-23 40 z" />
<glyph unicode="&#xa4;" d="M8 260l150 148q-84 103 -84 258q0 158 84 256l-150 149l98 98l136 -161q93 76 223 75q125 0 221 -75l135 161l103 -98l-150 -149q82 -99 82 -256q0 -153 -82 -258l150 -148l-103 -98l-135 162q-96 -76 -221 -76q-126 0 -223 76l-136 -162zM225 666q0 -131 68 -212 t174 -81q105 0 173.5 81.5t68.5 211.5q0 129 -69 210.5t-173 81.5t-173 -81.5t-69 -210.5z" />
<glyph unicode="&#xa5;" d="M2 1196v80h430v-80q-91 -11 -104.5 -20t-13.5 -22q0 -10 19 -56t91.5 -185.5t91.5 -181.5l119 268q52 118 52 153q0 19 -16.5 28t-97.5 16v80h398v-80q-70 -7 -99.5 -21t-51 -43t-91.5 -170t-135 -288h291v-94h-316v-154h316v-94h-316v-129q0 -81 25.5 -98t150.5 -25v-80 h-514v80q124 8 149.5 25t25.5 98v129h-322v94h322v154h-322v94h295l-227 436q-42 82 -150 86z" />
<glyph unicode="&#xa6;" horiz-adv-x="526" d="M184 -358v716h160v-716h-160zM184 666v716h160v-716h-160z" />
<glyph unicode="&#xa7;" horiz-adv-x="1038" d="M90 735q0 67 21 135t58.5 133t83.5 120.5t90 97t85.5 69t105 53t89.5 25.5q48 0 96.5 -19t64 -36.5t15.5 -42.5q0 -37 -28 -66.5t-55 -29.5q-6 0 -11 4q-70 59 -170 59q-51 0 -91.5 -35.5t-40.5 -89.5q0 -67 43 -117t281 -213q221 -158 221 -370q0 -70 -26 -146.5 t-68 -148.5t-90 -133t-89.5 -103.5t-83 -72t-102.5 -58.5t-81 -29q-65 0 -133 32.5t-68 68.5q0 29 36 66t62 37q6 0 12 -3q60 -45 152 -45q156 0 156 140q0 76 -48 137.5t-203 180.5q-109 83 -160.5 134.5t-87.5 118t-36 147.5zM225 823q0 -105 57 -178t173 -160 q170 -128 215.5 -185t55 -94t9.5 -97l4 -3q72 101 72 228q0 165 -176 301l-154 118q-98 76 -111 89.5t-37 53.5t-33 75q-3 13 -3 59l-4 2q-68 -92 -68 -209z" />
<glyph unicode="&#xa8;" horiz-adv-x="819" d="M94 1200q0 52 34.5 87.5t86.5 35.5q50 0 84.5 -36t34.5 -87q0 -52 -34 -85.5t-85 -33.5q-54 0 -87.5 33t-33.5 86zM485 1200q0 52 34.5 87.5t86.5 35.5q50 0 84.5 -36t34.5 -87q0 -52 -34 -85.5t-85 -33.5q-54 0 -87.5 33t-33.5 86z" />
<glyph unicode="&#xa9;" horiz-adv-x="1439" d="M96 653q0 262 178.5 440.5t444.5 178.5q268 0 446 -178t178 -441q0 -262 -177.5 -440t-446.5 -178q-266 0 -444.5 178.5t-178.5 439.5zM225 655q0 -224 142 -375t354 -151q214 0 356 150.5t142 375.5q0 224 -142 373.5t-356 149.5q-212 0 -354 -149t-142 -374zM371 647 q0 166 118 262.5t293 96.5q122 0 209 -35l23 -191l-66 -16q-27 84 -70.5 121t-117.5 37q-108 0 -169 -68.5t-61 -189.5q0 -132 66.5 -205.5t169.5 -73.5q145 0 203 162l67 -15l-51 -194q-118 -39 -223 -39q-180 0 -285.5 101.5t-105.5 246.5z" />
<glyph unicode="&#xaa;" horiz-adv-x="677" d="M78 659q0 45 21 78.5t54 51.5t116 49q123 45 151 63v21q0 44 -28 72t-75 28q-39 0 -63 -24t-43 -91q-9 -35 -45 -35q-26 0 -51 19.5t-25 44.5q0 52 109 108t151 56q103 0 150 -53t47 -132v-239q0 -82 41 -82q16 0 49 16l20 -55l-131 -66q-62 0 -102 82q-126 -82 -168 -82 q-76 0 -127 51t-51 119zM219 678q0 -39 26.5 -62.5t63.5 -23.5q51 0 111 53v180q-148 -52 -174.5 -78.5t-26.5 -68.5z" />
<glyph unicode="&#xab;" horiz-adv-x="958" d="M88 465q166 181 326 412l75 -52l-192 -360l192 -356l-75 -54q-177 254 -326 410zM455 465q172 194 323 412l78 -52l-192 -360l192 -356l-78 -54q-171 245 -323 410z" />
<glyph unicode="&#xac;" horiz-adv-x="1302" d="M119 688v133h1067v-602h-154v469h-913z" />
<glyph unicode="&#xad;" horiz-adv-x="708" d="M111 393v142h487v-142h-487z" />
<glyph unicode="&#xae;" horiz-adv-x="1218" d="M92 842q0 213 147.5 358.5t368.5 145.5q223 0 370.5 -145.5t147.5 -358.5q0 -212 -148 -358t-370 -146q-221 0 -368.5 146t-147.5 358zM209 842q0 -180 113 -297t288 -117q174 0 289 117.5t115 296.5q0 181 -114.5 298t-289.5 117t-288 -117t-113 -298zM358 567v58 q54 5 65 15t11 60v291q0 51 -10 62t-62 14v57h259q199 0 198 -147q0 -99 -110 -143q111 -201 182 -224l-10 -47h-35q-73 0 -112.5 34.5t-103.5 153.5q-20 38 -33 45t-36 7h-22v-103q0 -50 11 -60t66 -15v-58h-258zM541 856h47q73 0 95 35t22 70q0 51 -32 77.5t-79 26.5 q-38 0 -45.5 -5t-7.5 -30v-174z" />
<glyph unicode="&#xaf;" horiz-adv-x="1024" d="M0 1470v103h1024v-103h-1024z" />
<glyph unicode="&#xb0;" horiz-adv-x="706" d="M53 1049q0 133 88 215t211 82q128 0 215.5 -83t87.5 -214q0 -134 -86.5 -215.5t-216.5 -81.5q-128 0 -213.5 81.5t-85.5 215.5zM188 1049q0 -90 46.5 -144.5t121.5 -54.5q74 0 121 55t47 142q0 90 -46.5 145t-121.5 55q-76 0 -122 -54t-46 -144z" />
<glyph unicode="&#xb1;" horiz-adv-x="1302" d="M117 0v133h1069v-133h-1069zM117 680v133h458v414h154v-414h457v-133h-457v-440h-154v440h-458z" />
<glyph unicode="&#xb2;" horiz-adv-x="692" d="M55 504v57q229 191 299 293.5t70 181.5q0 75 -37.5 112.5t-97.5 37.5q-77 0 -162 -123l-61 53q85 109 108.5 130t69.5 37.5t96 16.5q110 0 178 -65t68 -176q0 -75 -45 -153.5t-273 -278.5v-2h166q56 0 76 12t47 68l74 -11q-21 -92 -43 -190h-533z" />
<glyph unicode="&#xb3;" horiz-adv-x="692" d="M70 579q0 28 26 55.5t44 27.5q14 0 24 -9q29 -25 72.5 -44t78.5 -19q63 0 104.5 42t41.5 116q0 71 -43.5 111t-114.5 40q-50 0 -106 -20l-17 65q223 75 223 164q0 90 -102 90q-74 0 -143 -111l-60 50l62 85q14 19 44 38t66 29.5t72 10.5q99 0 159 -48t60 -119 q0 -81 -125 -140v-4q84 -20 131 -75t47 -130q0 -131 -126 -213t-246 -82q-63 0 -117.5 25.5t-54.5 64.5z" />
<glyph unicode="&#xb4;" horiz-adv-x="819" d="M276 1079l159 227q63 91 76 99.5t28 8.5t66 -29.5t51 -54.5q0 -13 -7.5 -25t-98.5 -94l-208 -185z" />
<glyph unicode="&#xb5;" horiz-adv-x="1091" d="M141 -496l12 381q7 218 7 353v690h172v-545q0 -266 184 -266q86 0 145.5 62t59.5 181v568h172v-699q0 -115 53 -114q38 0 58 75l77 -22q-40 -193 -194 -193q-65 0 -111 41t-57 117h-4q-25 -72 -86.5 -115t-128.5 -43q-133 0 -197 125h-4l25 -553l-162 -59z" />
<glyph unicode="&#xb6;" horiz-adv-x="1040" d="M111 856q0 133 65.5 239t172.5 165t202 59h418l16 -37l-65 -59l-175 -23v-979q0 -188 -74.5 -299.5t-156 -154.5t-102.5 -43q-47 0 -85.5 15t-61.5 34t-23 42t30 58.5t53 35.5q6 0 11 -3q51 -37 121 -37q152 0 151 297v344l-133 -68q-2 -2 -33 -2q-100 0 -215.5 122.5 t-115.5 293.5z" />
<glyph unicode="&#xb7;" horiz-adv-x="481" d="M106 504q0 61 38 102t96 41q57 0 96 -41.5t39 -101.5q0 -62 -38.5 -103t-96.5 -41q-57 0 -95.5 40t-38.5 104z" />
<glyph unicode="&#xb8;" horiz-adv-x="819" d="M264 -444q129 62 129 129q0 23 -43 69q-45 49 -45 80q0 27 25 62l71 102h103q-57 -81 -61 -86.5t-4 -15.5q0 -15 26 -43q78 -84 78 -152q0 -140 -238 -223z" />
<glyph unicode="&#xb9;" horiz-adv-x="692" d="M152 504v69q81 3 107 20t26 97v385q0 73 -12.5 81t-116.5 13v66q148 17 276 65v-610q0 -84 27.5 -99.5t105.5 -17.5v-69h-413z" />
<glyph unicode="&#xba;" horiz-adv-x="724" d="M63 786q0 146 93.5 230t205.5 84q127 0 210 -86.5t83 -212.5q0 -144 -89.5 -228t-205.5 -84q-133 0 -215 86t-82 211zM217 821q0 -118 42.5 -186t113.5 -68q131 0 131 203q0 117 -41.5 184.5t-114.5 67.5q-57 0 -94 -53.5t-37 -147.5z" />
<glyph unicode="&#xbb;" horiz-adv-x="946" d="M90 109l193 356l-193 360l76 52q156 -220 326 -412q-150 -161 -326 -410zM455 109l192 356l-192 360l75 52q160 -230 326 -412q-149 -156 -326 -410z" />
<glyph unicode="&#xbc;" horiz-adv-x="1767" d="M168 504v69q81 3 107 20t26 97v385q0 73 -12.5 81t-116.5 13v66q148 17 276 65v-610q0 -84 27.5 -99.5t105.5 -17.5v-69h-413zM446 3l799 1337l88 -51l-801 -1343zM989 219v59q162 234 383 521h111v-494h125v-86h-125v-41q0 -71 20 -87.5t95 -23.5v-67h-404v67 q96 6 120.5 23t24.5 88v41h-350zM1124 305h215v313h-4q-94 -119 -211 -313z" />
<glyph unicode="&#xbd;" horiz-adv-x="1767" d="M162 504v69q81 3 107 20t26 97v385q0 73 -12.5 81t-116.5 13v66q148 17 276 65v-610q0 -84 27.5 -99.5t105.5 -17.5v-69h-413zM432 3l799 1337l88 -51l-801 -1343zM1075 0v57q229 191 299 293.5t70 181.5q0 75 -37.5 112.5t-97.5 37.5q-77 0 -162 -123l-61 53 q85 109 108.5 130t69.5 37.5t96 16.5q110 0 178 -65t68 -176q0 -75 -45 -153.5t-273 -278.5v-2h166q56 0 76 12t47 68l74 -11q-21 -92 -43 -190h-533z" />
<glyph unicode="&#xbe;" horiz-adv-x="1767" d="M133 579q0 28 26 55.5t44 27.5q14 0 24 -9q29 -25 72.5 -44t78.5 -19q63 0 104.5 42t41.5 116q0 71 -43.5 111t-114.5 40q-50 0 -106 -20l-17 65q223 75 223 164q0 90 -102 90q-74 0 -143 -111l-60 50l62 85q14 19 44 38t66 29.5t72 10.5q99 0 159 -48t60 -119 q0 -81 -125 -140v-4q84 -20 131 -75t47 -130q0 -131 -126 -213t-246 -82q-63 0 -117.5 25.5t-54.5 64.5zM471 3l799 1337l88 -51l-801 -1343zM1000 219v59q162 234 383 521h111v-494h125v-86h-125v-41q0 -71 20 -87.5t95 -23.5v-67h-404v67q96 6 120.5 23t24.5 88v41h-350z M1135 305h215v313h-4q-94 -119 -211 -313z" />
<glyph unicode="&#xbf;" horiz-adv-x="679" d="M84 -133q0 110 90 190q199 185 199 234q0 65 -84 141l55 68q78 -40 139.5 -116.5t61.5 -145.5q0 -63 -35.5 -117.5t-124.5 -126.5q-101 -82 -130.5 -124t-29.5 -77q0 -46 27 -74t70 -28q80 0 166 66q25 19 32 20q19 0 49.5 -34.5t30.5 -68.5q0 -44 -72.5 -89.5 t-130.5 -45.5q-120 0 -216.5 100.5t-96.5 227.5zM225 774q0 63 38.5 102t96.5 39t97 -39t39 -102q0 -59 -39 -99t-97 -40q-57 0 -96 40t-39 99z" />
<glyph unicode="&#xc0;" horiz-adv-x="1349" d="M51 0v80q87 7 122.5 31t86.5 163l381 1047l86 25l217 -658q115 -342 156.5 -448.5t75 -130t122.5 -29.5v-80h-479v80q65 6 95.5 15t30.5 36q0 17 -34.5 124t-68.5 185h-393q-86 -258 -87 -302q0 -32 30.5 -42t107.5 -16v-80h-449zM321 1615q0 14 37.5 63.5t65.5 49.5 q9 0 16.5 -2.5t112.5 -68.5l232 -146l-41 -67l-286 100q-116 41 -126.5 49t-10.5 22zM483 551h324l-156 500h-4z" />
<glyph unicode="&#xc1;" horiz-adv-x="1349" d="M51 0v80q87 7 122.5 31t86.5 163l381 1047l86 25l217 -658q115 -342 156.5 -448.5t75 -130t122.5 -29.5v-80h-479v80q65 6 95.5 15t30.5 36q0 17 -34.5 124t-68.5 185h-393q-86 -258 -87 -302q0 -32 30.5 -42t107.5 -16v-80h-449zM483 551h324l-156 500h-4zM585 1513 l232 143q106 67 113.5 70t16.5 3q28 0 64 -48.5t36 -64.5q0 -14 -12 -22.5t-133 -51.5l-278 -97z" />
<glyph unicode="&#xc2;" horiz-adv-x="1349" d="M51 0v80q87 7 122.5 31t86.5 163l381 1047l86 25l217 -658q115 -342 156.5 -448.5t75 -130t122.5 -29.5v-80h-479v80q65 6 95.5 15t30.5 36q0 17 -34.5 124t-68.5 185h-393q-86 -258 -87 -302q0 -32 30.5 -42t107.5 -16v-80h-449zM395 1494q142 93 260 209h65 q93 -96 256 -209l-43 -69q-150 65 -247 135q-114 -78 -246 -135zM483 551h324l-156 500h-4z" />
<glyph unicode="&#xc3;" horiz-adv-x="1349" d="M51 0v80q87 7 122.5 31t86.5 163l381 1047l86 25l217 -658q115 -342 156.5 -448.5t75 -130t122.5 -29.5v-80h-479v80q65 6 95.5 15t30.5 36q0 17 -34.5 124t-68.5 185h-393q-86 -258 -87 -302q0 -32 30.5 -42t107.5 -16v-80h-449zM392 1509q89 154 189 154q42 0 135 -39 q74 -31 115 -31q49 0 98 86l78 -45q-74 -162 -195 -161q-38 0 -155 47q-60 23 -88 22q-50 0 -101 -88zM483 551h324l-156 500h-4z" />
<glyph unicode="&#xc4;" horiz-adv-x="1349" d="M51 0v80q87 7 122.5 31t86.5 163l381 1047l86 25l217 -658q115 -342 156.5 -448.5t75 -130t122.5 -29.5v-80h-479v80q65 6 95.5 15t30.5 36q0 17 -34.5 124t-68.5 185h-393q-86 -258 -87 -302q0 -32 30.5 -42t107.5 -16v-80h-449zM346 1575q0 52 35 89.5t88 37.5 q49 0 84 -38t35 -89t-34 -85t-85 -34q-54 0 -88.5 33.5t-34.5 85.5zM483 551h324l-156 500h-4zM762 1575q0 52 34.5 89.5t85.5 37.5q49 0 84 -38t35 -89q0 -52 -33.5 -85.5t-85.5 -33.5q-53 0 -86.5 33.5t-33.5 85.5z" />
<glyph unicode="&#xc5;" horiz-adv-x="1349" d="M51 0v80q87 7 122.5 31t86.5 163l381 1047l86 25l217 -658q115 -342 156.5 -448.5t75 -130t122.5 -29.5v-80h-479v80q65 6 95.5 15t30.5 36q0 17 -34.5 124t-68.5 185h-393q-86 -258 -87 -302q0 -32 30.5 -42t107.5 -16v-80h-449zM455 1651q0 90 64.5 147.5t155.5 57.5 q90 0 154.5 -57.5t64.5 -147.5q0 -92 -65 -151.5t-154 -59.5t-154.5 59.5t-65.5 151.5zM483 551h324l-156 500h-4zM568 1651q0 -53 30.5 -88t78.5 -35q47 0 77.5 34.5t30.5 86.5q0 54 -29.5 86.5t-78.5 32.5t-79 -32.5t-30 -84.5z" />
<glyph unicode="&#xc6;" horiz-adv-x="1744" d="M10 0v78q73 10 107.5 24t63.5 51.5t125 229.5l344 686q53 106 53 127q0 16 -15 25.5t-127 19.5v78h1014q18 -256 22 -301l-88 -8q-29 131 -74.5 173t-185.5 42h-145q-47 0 -54.5 -9t-7.5 -55v-426h175q89 0 122 9t45 35t23 102h88v-400h-88q-12 78 -25 106.5t-46 38 t-119 9.5h-175v-328q0 -105 16.5 -148t61 -54t158.5 -11q82 0 129.5 7t75.5 26t63.5 79t57.5 136l88 -12q-23 -166 -68 -330h-944v80q95 8 130 21.5t45.5 54.5t10.5 151v328h-305q-210 -441 -210 -496q0 -30 32.5 -42.5t99.5 -18.5v-78h-473zM608 735h258v496h-12 q-106 -194 -246 -496z" />
<glyph unicode="&#xc7;" horiz-adv-x="1236" d="M100 641q0 308 197.5 506.5t499.5 198.5q123 0 311 -46l35 -327l-88 -10q-55 285 -303 284q-204 0 -322.5 -154t-118.5 -409q0 -283 123.5 -448.5t315.5 -165.5q121 0 197.5 70.5t146.5 240.5l90 -21q-81 -293 -101 -335q-125 -38 -264 -48q-42 -62 -42 -73q0 -15 26 -45 q74 -80 74 -146q0 -129 -230 -217l-37 70q123 60 123 129q0 27 -43 69q-44 47 -44 79q0 13 5.5 27.5t69.5 104.5q-300 15 -460.5 202.5t-160.5 463.5z" />
<glyph unicode="&#xc8;" horiz-adv-x="1150" d="M80 0v80q94 7 128.5 18t45 44.5t10.5 121.5v793q0 87 -10 120.5t-42 45t-116 18.5v78h885q19 -270 23 -303l-89 -10q-28 131 -68.5 174t-184.5 43h-156q-51 0 -56.5 -12.5t-5.5 -51.5v-422h179q89 0 122.5 8.5t45 34t22.5 99.5h88v-398h-88q-13 80 -26 108t-45.5 37 t-118.5 9h-179v-356q0 -86 18.5 -126t64 -49.5t157.5 -9.5q82 0 130 7.5t76.5 27t63 79t58.5 136.5l86 -14q-40 -233 -68 -330h-950zM234 1648q0 14 37.5 63.5t65.5 49.5q9 0 16.5 -2.5t112.5 -68.5l232 -146l-41 -67l-286 100q-116 41 -126.5 49t-10.5 22z" />
<glyph unicode="&#xc9;" horiz-adv-x="1150" d="M80 0v80q94 7 128.5 18t45 44.5t10.5 121.5v793q0 87 -10 120.5t-42 45t-116 18.5v78h885q19 -270 23 -303l-89 -10q-28 131 -68.5 174t-184.5 43h-156q-51 0 -56.5 -12.5t-5.5 -51.5v-422h179q89 0 122.5 8.5t45 34t22.5 99.5h88v-398h-88q-13 80 -26 108t-45.5 37 t-118.5 9h-179v-356q0 -86 18.5 -126t64 -49.5t157.5 -9.5q82 0 130 7.5t76.5 27t63 79t58.5 136.5l86 -14q-40 -233 -68 -330h-950zM489 1483l232 143q106 67 113.5 70t16.5 3q28 0 64 -48.5t36 -64.5q0 -14 -12 -22.5t-133 -51.5l-278 -97z" />
<glyph unicode="&#xca;" horiz-adv-x="1150" d="M80 0v80q94 7 128.5 18t45 44.5t10.5 121.5v793q0 87 -10 120.5t-42 45t-116 18.5v78h885q19 -270 23 -303l-89 -10q-28 131 -68.5 174t-184.5 43h-156q-51 0 -56.5 -12.5t-5.5 -51.5v-422h179q89 0 122.5 8.5t45 34t22.5 99.5h88v-398h-88q-13 80 -26 108t-45.5 37 t-118.5 9h-179v-356q0 -86 18.5 -126t64 -49.5t157.5 -9.5q82 0 130 7.5t76.5 27t63 79t58.5 136.5l86 -14q-40 -233 -68 -330h-950zM309 1505q142 93 260 209h65q93 -96 256 -209l-43 -69q-150 65 -247 135q-114 -78 -246 -135z" />
<glyph unicode="&#xcb;" horiz-adv-x="1150" d="M80 0v80q94 7 128.5 18t45 44.5t10.5 121.5v793q0 87 -10 120.5t-42 45t-116 18.5v78h885q19 -270 23 -303l-89 -10q-28 131 -68.5 174t-184.5 43h-156q-51 0 -56.5 -12.5t-5.5 -51.5v-422h179q89 0 122.5 8.5t45 34t22.5 99.5h88v-398h-88q-13 80 -26 108t-45.5 37 t-118.5 9h-179v-356q0 -86 18.5 -126t64 -49.5t157.5 -9.5q82 0 130 7.5t76.5 27t63 79t58.5 136.5l86 -14q-40 -233 -68 -330h-950zM256 1575q0 52 35 89.5t88 37.5q49 0 84 -38t35 -89t-34 -85t-85 -34q-54 0 -88.5 33.5t-34.5 85.5zM672 1575q0 52 34.5 89.5t85.5 37.5 q49 0 84 -38t35 -89q0 -52 -33.5 -85.5t-85.5 -33.5q-53 0 -86.5 33.5t-33.5 85.5z" />
<glyph unicode="&#xcc;" horiz-adv-x="708" d="M-12 1617q0 14 37.5 63.5t65.5 49.5q9 0 16.5 -2.5t112.5 -68.5l232 -146l-41 -67l-286 100q-116 41 -126.5 49t-10.5 22zM90 0v80q87 5 120.5 17t43.5 45.5t10 121.5v791q0 122 -26.5 149t-147.5 35v80h528v-80q-121 -8 -147.5 -35t-26.5 -149v-791q0 -88 10.5 -121.5 t43.5 -45.5t120 -17v-80h-528z" />
<glyph unicode="&#xcd;" horiz-adv-x="708" d="M90 0v80q87 5 120.5 17t43.5 45.5t10 121.5v791q0 122 -26.5 149t-147.5 35v80h528v-80q-121 -8 -147.5 -35t-26.5 -149v-791q0 -88 10.5 -121.5t43.5 -45.5t120 -17v-80h-528zM270 1514l232 143q106 67 113.5 70t16.5 3q28 0 64 -48.5t36 -64.5q0 -14 -12 -22.5 t-133 -51.5l-278 -97z" />
<glyph unicode="&#xce;" horiz-adv-x="708" d="M64 1515q142 93 260 209h65q93 -96 256 -209l-43 -69q-150 65 -247 135q-114 -78 -246 -135zM90 0v80q87 5 120.5 17t43.5 45.5t10 121.5v791q0 122 -26.5 149t-147.5 35v80h528v-80q-121 -8 -147.5 -35t-26.5 -149v-791q0 -88 10.5 -121.5t43.5 -45.5t120 -17v-80h-528z " />
<glyph unicode="&#xcf;" horiz-adv-x="708" d="M27 1575q0 52 35 89.5t88 37.5q49 0 84 -38t35 -89t-34 -85t-85 -34q-54 0 -88.5 33.5t-34.5 85.5zM90 0v80q87 5 120.5 17t43.5 45.5t10 121.5v791q0 122 -26.5 149t-147.5 35v80h528v-80q-121 -8 -147.5 -35t-26.5 -149v-791q0 -88 10.5 -121.5t43.5 -45.5t120 -17v-80 h-528zM443 1575q0 52 34.5 89.5t85.5 37.5q49 0 84 -38t35 -89q0 -52 -33.5 -85.5t-85.5 -33.5q-53 0 -86.5 33.5t-33.5 85.5z" />
<glyph unicode="&#xd0;" horiz-adv-x="1429" d="M92 635v104h199v277q0 108 -10.5 149t-41.5 55t-114 19v80h498q376 0 541 -174t165 -436q0 -343 -210.5 -526t-586.5 -183h-421v78q91 7 124.5 20.5t44.5 54t11 148.5v334h-199zM471 291q0 -114 32 -151.5t136 -37.5q231 0 357 149.5t126 414.5q0 271 -126.5 416 t-387.5 145q-117 0 -127 -17.5t-10 -58.5v-412h297v-104h-297v-344z" />
<glyph unicode="&#xd1;" horiz-adv-x="1423" d="M55 1239v80h307l701 -987h6v459q0 349 -35 395.5t-168 52.5v80h500v-80q-138 -3 -160 -72.5t-22 -375.5v-805h-101l-702 1009h-6v-473q0 -303 22.5 -371t182.5 -71v-80h-496v80q133 2 154.5 72t21.5 370v432q0 141 -10 185t-56 69.5t-139 30.5zM412 1509q89 154 189 154 q42 0 135 -39q74 -31 115 -31q49 0 98 86l78 -45q-74 -162 -195 -161q-38 0 -155 47q-60 23 -88 22q-50 0 -101 -88z" />
<glyph unicode="&#xd2;" horiz-adv-x="1386" d="M102 647q0 288 167.5 493.5t441.5 205.5q240 0 406.5 -188.5t166.5 -479.5q0 -317 -168.5 -511t-429.5 -194q-253 0 -418.5 191t-165.5 483zM317 702q0 -289 108.5 -460.5t297.5 -171.5q169 0 259.5 137t90.5 399q0 317 -105 480t-298 163q-163 0 -258 -142.5t-95 -404.5 zM340 1615q0 14 37.5 63.5t65.5 49.5q9 0 16.5 -2.5t112.5 -68.5l232 -146l-41 -67l-286 100q-116 41 -126.5 49t-10.5 22z" />
<glyph unicode="&#xd3;" horiz-adv-x="1386" d="M102 647q0 288 167.5 493.5t441.5 205.5q240 0 406.5 -188.5t166.5 -479.5q0 -317 -168.5 -511t-429.5 -194q-253 0 -418.5 191t-165.5 483zM317 702q0 -289 108.5 -460.5t297.5 -171.5q169 0 259.5 137t90.5 399q0 317 -105 480t-298 163q-163 0 -258 -142.5t-95 -404.5 zM591 1513l232 143q106 67 113.5 70t16.5 3q28 0 64 -48.5t36 -64.5q0 -14 -12 -22.5t-133 -51.5l-278 -97z" />
<glyph unicode="&#xd4;" horiz-adv-x="1386" d="M102 647q0 288 167.5 493.5t441.5 205.5q240 0 406.5 -188.5t166.5 -479.5q0 -317 -168.5 -511t-429.5 -194q-253 0 -418.5 191t-165.5 483zM317 702q0 -289 108.5 -460.5t297.5 -171.5q169 0 259.5 137t90.5 399q0 317 -105 480t-298 163q-163 0 -258 -142.5t-95 -404.5 zM405 1514q142 93 260 209h65q93 -96 256 -209l-43 -69q-150 65 -247 135q-114 -78 -246 -135z" />
<glyph unicode="&#xd5;" horiz-adv-x="1386" d="M102 647q0 288 167.5 493.5t441.5 205.5q240 0 406.5 -188.5t166.5 -479.5q0 -317 -168.5 -511t-429.5 -194q-253 0 -418.5 191t-165.5 483zM317 702q0 -289 108.5 -460.5t297.5 -171.5q169 0 259.5 137t90.5 399q0 317 -105 480t-298 163q-163 0 -258 -142.5t-95 -404.5 zM390 1509q89 154 189 154q42 0 135 -39q74 -31 115 -31q49 0 98 86l78 -45q-74 -162 -195 -161q-38 0 -155 47q-60 23 -88 22q-50 0 -101 -88z" />
<glyph unicode="&#xd6;" horiz-adv-x="1386" d="M102 647q0 288 167.5 493.5t441.5 205.5q240 0 406.5 -188.5t166.5 -479.5q0 -317 -168.5 -511t-429.5 -194q-253 0 -418.5 191t-165.5 483zM317 702q0 -289 108.5 -460.5t297.5 -171.5q169 0 259.5 137t90.5 399q0 317 -105 480t-298 163q-163 0 -258 -142.5t-95 -404.5 zM367 1575q0 52 35 89.5t88 37.5q49 0 84 -38t35 -89t-34 -85t-85 -34q-54 0 -88.5 33.5t-34.5 85.5zM783 1575q0 52 34.5 89.5t85.5 37.5q49 0 84 -38t35 -89q0 -52 -33.5 -85.5t-85.5 -33.5q-53 0 -86.5 33.5t-33.5 85.5z" />
<glyph unicode="&#xd7;" horiz-adv-x="1302" d="M137 125l414 424l-414 428l99 100l413 -428l418 428l98 -102l-417 -426l417 -424l-98 -105l-418 429l-413 -429z" />
<glyph unicode="&#xd8;" horiz-adv-x="1386" d="M102 645q0 289 166.5 495t438.5 206q150 0 274 -74l90 145l88 -53l-92 -152q217 -198 217 -534q0 -314 -169 -509.5t-429 -195.5q-156 0 -299 84l-94 -151l-84 61l98 156q-205 195 -205 522zM313 700q0 -251 86 -421l516 884q-91 86 -247 86q-161 0 -258 -144t-97 -405z M463 182q92 -113 258 -112q171 0 261.5 136.5t90.5 401.5q0 314 -92 461z" />
<glyph unicode="&#xd9;" horiz-adv-x="1431" d="M70 1239v80h528v-80q-118 -8 -144 -34.5t-26 -145.5v-469q0 -162 32.5 -269.5t102 -163t195.5 -55.5q175 0 253.5 140t78.5 420v120q0 342 -26 397.5t-179 59.5v80h501v-80q-140 0 -161 -72.5t-21 -384.5v-155q0 -375 -143 -514.5t-344 -139.5q-231 0 -350 127t-119 418 v541q0 119 -27 146.5t-151 33.5zM367 1617q0 14 37.5 63.5t65.5 49.5q9 0 16.5 -2.5t112.5 -68.5l232 -146l-41 -67l-286 100q-116 41 -126.5 49t-10.5 22z" />
<glyph unicode="&#xda;" horiz-adv-x="1431" d="M70 1239v80h528v-80q-118 -8 -144 -34.5t-26 -145.5v-469q0 -162 32.5 -269.5t102 -163t195.5 -55.5q175 0 253.5 140t78.5 420v120q0 342 -26 397.5t-179 59.5v80h501v-80q-140 0 -161 -72.5t-21 -384.5v-155q0 -375 -143 -514.5t-344 -139.5q-231 0 -350 127t-119 418 v541q0 119 -27 146.5t-151 33.5zM657 1514l232 143q106 67 113.5 70t16.5 3q28 0 64 -48.5t36 -64.5q0 -14 -12 -22.5t-133 -51.5l-278 -97z" />
<glyph unicode="&#xdb;" horiz-adv-x="1431" d="M70 1239v80h528v-80q-118 -8 -144 -34.5t-26 -145.5v-469q0 -162 32.5 -269.5t102 -163t195.5 -55.5q175 0 253.5 140t78.5 420v120q0 342 -26 397.5t-179 59.5v80h501v-80q-140 0 -161 -72.5t-21 -384.5v-155q0 -375 -143 -514.5t-344 -139.5q-231 0 -350 127t-119 418 v541q0 119 -27 146.5t-151 33.5zM457 1515q142 93 260 209h65q93 -96 256 -209l-43 -69q-150 65 -247 135q-114 -78 -246 -135z" />
<glyph unicode="&#xdc;" horiz-adv-x="1431" d="M70 1239v80h528v-80q-118 -8 -144 -34.5t-26 -145.5v-469q0 -162 32.5 -269.5t102 -163t195.5 -55.5q175 0 253.5 140t78.5 420v120q0 342 -26 397.5t-179 59.5v80h501v-80q-140 0 -161 -72.5t-21 -384.5v-155q0 -375 -143 -514.5t-344 -139.5q-231 0 -350 127t-119 418 v541q0 119 -27 146.5t-151 33.5zM430 1575q0 52 35 89.5t88 37.5q49 0 84 -38t35 -89t-34 -85t-85 -34q-54 0 -88.5 33.5t-34.5 85.5zM846 1575q0 52 34.5 89.5t85.5 37.5q49 0 84 -38t35 -89q0 -52 -33.5 -85.5t-85.5 -33.5q-53 0 -86.5 33.5t-33.5 85.5z" />
<glyph unicode="&#xdd;" horiz-adv-x="1255" d="M51 1239v80h475v-80q-62 -6 -92 -15t-30 -30q0 -14 11 -38l97 -187q87 -165 143 -262q227 440 228 483q0 26 -33.5 35t-104.5 14v80h459v-80q-72 -7 -108.5 -23t-66 -53.5t-88 -139t-132.5 -242.5t-86 -170t-12 -72v-279q0 -120 30 -146t170 -34v-80h-571v80 q133 8 161.5 34t28.5 146v258q0 49 -20 90l-151 279q-115 219 -142 263t-58 62t-108 27zM581 1514l232 143q106 67 113.5 70t16.5 3q28 0 64 -48.5t36 -64.5q0 -14 -12 -22.5t-133 -51.5l-278 -97z" />
<glyph unicode="&#xde;" horiz-adv-x="1134" d="M80 0v80q87 6 119.5 19t43.5 54.5t11 149.5v713q0 106 -11 148t-43.5 56t-117.5 19v80h524v-80q-87 -5 -120 -19t-43.5 -53.5t-10.5 -142.5h191q198 0 308.5 -87.5t110.5 -252.5q0 -182 -136 -278.5t-331 -96.5l-143 25v-45q0 -100 11.5 -139t47 -51.5t130.5 -18.5v-80 h-541zM432 434q65 -31 139 -31q129 0 201 70.5t72 196.5q0 262 -289 262q-93 0 -108 -10.5t-15 -55.5v-432z" />
<glyph unicode="&#xdf;" horiz-adv-x="1153" d="M76 856l57 70h92v24q0 114 38 211t104 167t151.5 107.5t147.5 37.5q153 0 246.5 -85t93.5 -240q0 -86 -60 -157q-178 -110 -178 -200q0 -28 29 -68.5t125 -128.5q152 -134 151 -279q0 -145 -107.5 -243.5t-244.5 -98.5q-74 0 -125.5 27.5t-51.5 66.5q0 27 25.5 52.5 t44.5 25.5q10 0 21 -8q67 -53 139 -53q61 0 98 36.5t37 106.5q0 128 -133 234q-180 145 -180 262q0 48 31.5 96t101.5 113q66 58 91.5 98t25.5 86q0 111 -62.5 180.5t-160.5 69.5q-114 0 -170 -113t-56 -376v-656q0 -90 16.5 -112.5t90.5 -28.5v-80h-424v80q103 8 124 27.5 t21 111.5v608h-135z" />
<glyph unicode="&#xe0;" horiz-adv-x="976" d="M100 244q0 71 31.5 122t79.5 78t177 76q200 77 220 101v36q0 90 -44 139.5t-120 49.5q-41 0 -84 -30t-79 -146q-16 -51 -64 -52q-34 0 -67 28.5t-33 62.5q0 24 11.5 42.5t36 40t56.5 42t78 44.5t113 49t92 25q117 0 195.5 -66.5t78.5 -199.5v-446q0 -119 62 -119 q27 0 78 24l28 -73l-198 -97q-31 0 -71.5 30.5t-62.5 94.5q-184 -125 -254 -125q-109 0 -184.5 79.5t-75.5 189.5zM182 1349q0 27 54 55t69 28q14 0 26.5 -8.5t80.5 -104.5l153 -220l-65 -53l-216 189q-86 76 -94 89t-8 25zM289 268q0 -70 45 -112.5t98 -42.5q81 0 176 90 v311q-214 -96 -243.5 -112.5t-52.5 -48.5t-23 -85z" />
<glyph unicode="&#xe1;" horiz-adv-x="976" d="M100 244q0 71 31.5 122t79.5 78t177 76q200 77 220 101v36q0 90 -44 139.5t-120 49.5q-41 0 -84 -30t-79 -146q-16 -51 -64 -52q-34 0 -67 28.5t-33 62.5q0 24 11.5 42.5t36 40t56.5 42t78 44.5t113 49t92 25q117 0 195.5 -66.5t78.5 -199.5v-446q0 -119 62 -119 q27 0 78 24l28 -73l-198 -97q-31 0 -71.5 30.5t-62.5 94.5q-184 -125 -254 -125q-109 0 -184.5 79.5t-75.5 189.5zM289 268q0 -70 45 -112.5t98 -42.5q81 0 176 90v311q-214 -96 -243.5 -112.5t-52.5 -48.5t-23 -85zM419 1099l159 227q63 91 76 99.5t28 8.5t66 -29.5 t51 -54.5q0 -13 -7.5 -25t-98.5 -94l-208 -185z" />
<glyph unicode="&#xe2;" horiz-adv-x="976" d="M100 244q0 71 31.5 122t79.5 78t177 76q200 77 220 101v36q0 90 -44 139.5t-120 49.5q-41 0 -84 -30t-79 -146q-16 -51 -64 -52q-34 0 -67 28.5t-33 62.5q0 24 11.5 42.5t36 40t56.5 42t78 44.5t113 49t92 25q117 0 195.5 -66.5t78.5 -199.5v-446q0 -119 62 -119 q27 0 78 24l28 -73l-198 -97q-31 0 -71.5 30.5t-62.5 94.5q-184 -125 -254 -125q-109 0 -184.5 79.5t-75.5 189.5zM219 1097q143 205 209 332h78q72 -138 206 -332l-84 -53q-151 198 -161 213l-166 -213zM289 268q0 -70 45 -112.5t98 -42.5q81 0 176 90v311 q-214 -96 -243.5 -112.5t-52.5 -48.5t-23 -85z" />
<glyph unicode="&#xe3;" horiz-adv-x="976" d="M100 244q0 71 31.5 122t79.5 78t177 76q200 77 220 101v36q0 90 -44 139.5t-120 49.5q-41 0 -84 -30t-79 -146q-16 -51 -64 -52q-34 0 -67 28.5t-33 62.5q0 24 11.5 42.5t36 40t56.5 42t78 44.5t113 49t92 25q117 0 195.5 -66.5t78.5 -199.5v-446q0 -119 62 -119 q27 0 78 24l28 -73l-198 -97q-31 0 -71.5 30.5t-62.5 94.5q-184 -125 -254 -125q-109 0 -184.5 79.5t-75.5 189.5zM177 1153q85 164 187 163q48 0 133 -36q79 -33 113 -33q44 0 96 88l80 -49q-77 -166 -191 -166q-37 0 -155 49q-56 23 -86 22q-50 0 -101 -92zM289 268 q0 -70 45 -112.5t98 -42.5q81 0 176 90v311q-214 -96 -243.5 -112.5t-52.5 -48.5t-23 -85z" />
<glyph unicode="&#xe4;" horiz-adv-x="976" d="M100 244q0 71 31.5 122t79.5 78t177 76q200 77 220 101v36q0 90 -44 139.5t-120 49.5q-41 0 -84 -30t-79 -146q-16 -51 -64 -52q-34 0 -67 28.5t-33 62.5q0 24 11.5 42.5t36 40t56.5 42t78 44.5t113 49t92 25q117 0 195.5 -66.5t78.5 -199.5v-446q0 -119 62 -119 q27 0 78 24l28 -73l-198 -97q-31 0 -71.5 30.5t-62.5 94.5q-184 -125 -254 -125q-109 0 -184.5 79.5t-75.5 189.5zM168 1220q0 52 34.5 87.5t86.5 35.5q50 0 84.5 -36t34.5 -87q0 -52 -34 -85.5t-85 -33.5q-54 0 -87.5 33t-33.5 86zM289 268q0 -70 45 -112.5t98 -42.5 q81 0 176 90v311q-214 -96 -243.5 -112.5t-52.5 -48.5t-23 -85zM559 1220q0 52 34.5 87.5t86.5 35.5q50 0 84.5 -36t34.5 -87q0 -52 -34 -85.5t-85 -33.5q-54 0 -87.5 33t-33.5 86z" />
<glyph unicode="&#xe5;" horiz-adv-x="976" d="M100 244q0 71 31.5 122t79.5 78t177 76q200 77 220 101v36q0 90 -44 139.5t-120 49.5q-41 0 -84 -30t-79 -146q-16 -51 -64 -52q-34 0 -67 28.5t-33 62.5q0 24 11.5 42.5t36 40t56.5 42t78 44.5t113 49t92 25q117 0 195.5 -66.5t78.5 -199.5v-446q0 -119 62 -119 q27 0 78 24l28 -73l-198 -97q-31 0 -71.5 30.5t-62.5 94.5q-184 -125 -254 -125q-109 0 -184.5 79.5t-75.5 189.5zM274 1271q0 92 66 148.5t154 56.5q90 0 154.5 -57.5t64.5 -147.5q0 -92 -65 -151.5t-154 -59.5t-154.5 59.5t-65.5 151.5zM289 268q0 -70 45 -112.5t98 -42.5 q81 0 176 90v311q-214 -96 -243.5 -112.5t-52.5 -48.5t-23 -85zM387 1271q0 -53 30.5 -88t78.5 -35q47 0 77.5 34.5t30.5 86.5q0 53 -29.5 86t-78.5 33t-79 -32t-30 -85z" />
<glyph unicode="&#xe6;" horiz-adv-x="1433" d="M102 240q0 84 38 138t122 91q347 147 352 152v34q0 89 -44 140t-121 51q-49 0 -91.5 -33t-81.5 -149q-14 -47 -59 -48q-28 0 -64 29.5t-36 61.5q0 23 11 42.5t33 39t55 41t78.5 45.5t113.5 50.5t92 26.5q178 0 250 -143q141 145 301 145q126 0 219.5 -101t93.5 -239 q0 -48 -11 -65t-41 -24.5t-195.5 -18t-344.5 -17.5q0 -172 85.5 -266t221.5 -94q131 0 221 98l48 -61q-77 -95 -165 -143t-159 -48q-219 0 -334 181q-157 -119 -221.5 -150t-103.5 -31q-109 0 -186 79t-77 186zM287 274q0 -69 42 -113t107 -44q98 0 211 121q-35 82 -35 280 l-188 -80q-71 -30 -104 -68t-33 -96zM784 596l357 6q24 0 31.5 12t7.5 45q0 85 -51 138t-130 53q-73 0 -135.5 -68t-79.5 -186z" />
<glyph unicode="&#xe7;" horiz-adv-x="901" d="M96 418q0 147 76 271.5t206.5 193.5t246.5 69q51 0 130 -26.5t79 -89.5q0 -32 -29 -69.5t-53 -37.5q-16 0 -33 16q-86 86 -209 86q-95 0 -163 -84t-68 -239q0 -142 46.5 -227.5t112.5 -120.5t131 -35q74 0 125 27t107 84l55 -66q-136 -152 -264 -186q-48 -72 -48 -82 q0 -17 27 -43q74 -86 74 -146q0 -132 -229 -217l-37 68q123 66 123 131q0 20 -45 69q-44 47 -44 79q0 24 20 53l59 81q-193 22 -294.5 147.5t-101.5 293.5z" />
<glyph unicode="&#xe8;" horiz-adv-x="927" d="M96 430q0 220 135.5 371t300.5 151q131 0 227.5 -100.5t96.5 -235.5q0 -48 -9 -66.5t-38.5 -24.5t-199.5 -17.5t-343 -18.5q7 -174 96.5 -267t212.5 -93q116 0 209 98l56 -67q-80 -92 -170.5 -138.5t-157.5 -46.5q-185 0 -300.5 129.5t-115.5 325.5zM214 1349q0 27 54 55 t69 28q14 0 26.5 -8.5t80.5 -104.5l153 -220l-65 -53l-216 189q-86 76 -94 89t-8 25zM281 598l337 6q34 0 44 12t10 43q0 82 -51 138.5t-127 56.5q-75 0 -136.5 -67.5t-76.5 -188.5z" />
<glyph unicode="&#xe9;" horiz-adv-x="927" d="M96 430q0 220 135.5 371t300.5 151q131 0 227.5 -100.5t96.5 -235.5q0 -48 -9 -66.5t-38.5 -24.5t-199.5 -17.5t-343 -18.5q7 -174 96.5 -267t212.5 -93q116 0 209 98l56 -67q-80 -92 -170.5 -138.5t-157.5 -46.5q-185 0 -300.5 129.5t-115.5 325.5zM281 598l337 6 q34 0 44 12t10 43q0 82 -51 138.5t-127 56.5q-75 0 -136.5 -67.5t-76.5 -188.5zM443 1099l159 227q63 91 76 99.5t28 8.5t66 -29.5t51 -54.5q0 -13 -7.5 -25t-98.5 -94l-208 -185z" />
<glyph unicode="&#xea;" horiz-adv-x="927" d="M96 430q0 220 135.5 371t300.5 151q131 0 227.5 -100.5t96.5 -235.5q0 -48 -9 -66.5t-38.5 -24.5t-199.5 -17.5t-343 -18.5q7 -174 96.5 -267t212.5 -93q116 0 209 98l56 -67q-80 -92 -170.5 -138.5t-157.5 -46.5q-185 0 -300.5 129.5t-115.5 325.5zM267 1097 q143 205 209 332h78q72 -138 206 -332l-84 -53q-151 198 -161 213l-166 -213zM281 598l337 6q34 0 44 12t10 43q0 82 -51 138.5t-127 56.5q-75 0 -136.5 -67.5t-76.5 -188.5z" />
<glyph unicode="&#xeb;" horiz-adv-x="927" d="M96 430q0 220 135.5 371t300.5 151q131 0 227.5 -100.5t96.5 -235.5q0 -48 -9 -66.5t-38.5 -24.5t-199.5 -17.5t-343 -18.5q7 -174 96.5 -267t212.5 -93q116 0 209 98l56 -67q-80 -92 -170.5 -138.5t-157.5 -46.5q-185 0 -300.5 129.5t-115.5 325.5zM188 1220 q0 52 34.5 87.5t86.5 35.5q50 0 84.5 -36t34.5 -87q0 -52 -34 -85.5t-85 -33.5q-54 0 -87.5 33t-33.5 86zM281 598l337 6q34 0 44 12t10 43q0 82 -51 138.5t-127 56.5q-75 0 -136.5 -67.5t-76.5 -188.5zM579 1220q0 52 34.5 87.5t86.5 35.5q50 0 84.5 -36t34.5 -87 q0 -52 -34 -85.5t-85 -33.5q-54 0 -87.5 33t-33.5 86z" />
<glyph unicode="&#xec;" horiz-adv-x="589" d="M-8 1347q0 27 54 55t69 28q14 0 26.5 -8.5t80.5 -104.5l153 -220l-65 -53l-216 189q-86 76 -94 89t-8 25zM82 0v80q100 9 121.5 31t21.5 122v400q0 79 -7 107.5t-30.5 38t-95.5 20.5v69q156 28 305 84v-719q0 -101 21.5 -122.5t124.5 -30.5v-80h-461z" />
<glyph unicode="&#xed;" horiz-adv-x="589" d="M82 0v80q100 9 121.5 31t21.5 122v400q0 79 -7 107.5t-30.5 38t-95.5 20.5v69q156 28 305 84v-719q0 -101 21.5 -122.5t124.5 -30.5v-80h-461zM221 1097l159 227q63 91 76 99.5t28 8.5t66 -29.5t51 -54.5q0 -13 -7.5 -25t-98.5 -94l-208 -185z" />
<glyph unicode="&#xee;" horiz-adv-x="589" d="M51 1096q143 205 209 332h78q72 -138 206 -332l-84 -53q-151 198 -161 213l-166 -213zM82 0v80q100 9 121.5 31t21.5 122v400q0 79 -7 107.5t-30.5 38t-95.5 20.5v69q156 28 305 84v-719q0 -101 21.5 -122.5t124.5 -30.5v-80h-461z" />
<glyph unicode="&#xef;" horiz-adv-x="589" d="M-21 1220q0 52 34.5 87.5t86.5 35.5q50 0 84.5 -36t34.5 -87q0 -52 -34 -85.5t-85 -33.5q-54 0 -87.5 33t-33.5 86zM82 0v80q100 9 121.5 31t21.5 122v400q0 79 -7 107.5t-30.5 38t-95.5 20.5v69q156 28 305 84v-719q0 -101 21.5 -122.5t124.5 -30.5v-80h-461zM370 1220 q0 52 34.5 87.5t86.5 35.5q50 0 84.5 -36t34.5 -87q0 -52 -34 -85.5t-85 -33.5q-54 0 -87.5 33t-33.5 86z" />
<glyph unicode="&#xf0;" horiz-adv-x="1071" d="M94 446q0 148 64 263t173.5 179t221.5 64q121 0 188 -61q-61 183 -145 274l-272 -147l-41 82l249 135q-148 123 -323 156q-6 8 -6 26q0 24 9 40t15 16q59 0 184 -44.5t230 -128.5l256 138l43 -82l-225 -125q258 -280 258 -662q0 -282 -123.5 -438t-319.5 -156 q-189 0 -312.5 142t-123.5 329zM297 524q0 -202 74 -326t194 -124q113 0 167.5 104t54.5 354q0 136 -19 188t-83 93t-144 41q-110 0 -177 -88.5t-67 -241.5z" />
<glyph unicode="&#xf1;" horiz-adv-x="1155" d="M78 0v80q87 6 117 24.5t30 124.5v420q0 100 -17.5 120.5t-107.5 31.5v69q175 33 297 84v-147q182 145 297 145q125 0 197 -77t72 -207v-437q0 -98 20.5 -120t108.5 -31v-80h-424v80q85 9 104 29.5t19 111.5v365q0 121 -40.5 176t-127.5 55q-105 0 -226 -119v-467 q0 -99 19.5 -120.5t107.5 -30.5v-80h-446zM271 1153q85 164 187 163q48 0 133 -36q79 -33 113 -33q44 0 96 88l80 -49q-77 -166 -191 -166q-37 0 -155 49q-56 23 -86 22q-50 0 -101 -92z" />
<glyph unicode="&#xf2;" horiz-adv-x="1083" d="M94 436q0 156 60.5 272.5t166.5 180t222 63.5q193 0 317.5 -135.5t124.5 -339.5q0 -226 -131 -364t-311 -138q-199 0 -324 137t-125 324zM236 1370q0 27 54 55t69 28q14 0 26.5 -8.5t80.5 -104.5l153 -220l-65 -53l-216 189q-86 76 -94 89t-8 25zM295 520 q0 -207 73.5 -326.5t200.5 -119.5q118 0 168.5 87t50.5 267q0 203 -69 314.5t-199 111.5q-105 0 -165 -87t-60 -247z" />
<glyph unicode="&#xf3;" horiz-adv-x="1083" d="M94 436q0 156 60.5 272.5t166.5 180t222 63.5q193 0 317.5 -135.5t124.5 -339.5q0 -226 -131 -364t-311 -138q-199 0 -324 137t-125 324zM295 520q0 -207 73.5 -326.5t200.5 -119.5q118 0 168.5 87t50.5 267q0 203 -69 314.5t-199 111.5q-105 0 -165 -87t-60 -247z M475 1099l159 227q63 91 76 99.5t28 8.5t66 -29.5t51 -54.5q0 -13 -7.5 -25t-98.5 -94l-208 -185z" />
<glyph unicode="&#xf4;" horiz-adv-x="1083" d="M94 436q0 156 60.5 272.5t166.5 180t222 63.5q193 0 317.5 -135.5t124.5 -339.5q0 -226 -131 -364t-311 -138q-199 0 -324 137t-125 324zM295 520q0 -207 73.5 -326.5t200.5 -119.5q118 0 168.5 87t50.5 267q0 203 -69 314.5t-199 111.5q-105 0 -165 -87t-60 -247z M295 1097q143 205 209 332h78q72 -138 206 -332l-84 -53q-151 198 -161 213l-166 -213z" />
<glyph unicode="&#xf5;" horiz-adv-x="1083" d="M94 436q0 156 60.5 272.5t166.5 180t222 63.5q193 0 317.5 -135.5t124.5 -339.5q0 -226 -131 -364t-311 -138q-199 0 -324 137t-125 324zM238 1153q85 164 187 163q48 0 133 -36q79 -33 113 -33q44 0 96 88l80 -49q-77 -166 -191 -166q-37 0 -155 49q-56 23 -86 22 q-50 0 -101 -92zM295 520q0 -207 73.5 -326.5t200.5 -119.5q118 0 168.5 87t50.5 267q0 203 -69 314.5t-199 111.5q-105 0 -165 -87t-60 -247z" />
<glyph unicode="&#xf6;" horiz-adv-x="1083" d="M94 436q0 156 60.5 272.5t166.5 180t222 63.5q193 0 317.5 -135.5t124.5 -339.5q0 -226 -131 -364t-311 -138q-199 0 -324 137t-125 324zM225 1220q0 52 34.5 87.5t86.5 35.5q50 0 84.5 -36t34.5 -87q0 -52 -34 -85.5t-85 -33.5q-54 0 -87.5 33t-33.5 86zM295 520 q0 -207 73.5 -326.5t200.5 -119.5q118 0 168.5 87t50.5 267q0 203 -69 314.5t-199 111.5q-105 0 -165 -87t-60 -247zM616 1220q0 52 34.5 87.5t86.5 35.5q50 0 84.5 -36t34.5 -87q0 -52 -34 -85.5t-85 -33.5q-54 0 -87.5 33t-33.5 86z" />
<glyph unicode="&#xf7;" horiz-adv-x="1302" d="M117 500v133h1067v-133h-1067zM524 227q0 52 37.5 88.5t89.5 36.5q49 0 87 -37t38 -88q0 -48 -38.5 -86.5t-86.5 -38.5q-51 0 -89 38t-38 87zM528 905q0 48 39 86.5t86 38.5q51 0 89 -38t38 -87q0 -51 -37 -88t-90 -37q-48 0 -86.5 37.5t-38.5 87.5z" />
<glyph unicode="&#xf8;" horiz-adv-x="1087" d="M96 436q0 155 61.5 271.5t169 180.5t222.5 64q111 0 205 -51l82 123l82 -51l-84 -127q158 -138 157 -369q0 -226 -132 -364t-312 -138q-113 0 -215 56l-86 -131l-78 63l84 123q-156 140 -156 350zM283 498q0 -159 63 -260l354 555q-71 57 -174 57q-112 0 -177.5 -92 t-65.5 -260zM401 141q59 -68 164 -67q127 0 183.5 89.5t56.5 272.5q0 165 -47 264z" />
<glyph unicode="&#xf9;" horiz-adv-x="1136" d="M80 827v74q99 4 305 39q-6 -93 -6 -301v-301q0 -113 41 -169t133 -56q96 0 217 106v479q0 59 -10.5 84t-33.5 31t-116 16v74q226 12 332 37v-704q0 -71 16 -90t68 -19h66v-78q-94 -10 -306 -74l-16 13v127q-174 -139 -307 -140q-121 0 -188.5 78.5t-67.5 227.5v415 q0 58 -9.5 83t-27 31t-90.5 17zM238 1351q0 27 54 55t69 28q14 0 26.5 -8.5t80.5 -104.5l153 -220l-65 -53l-216 189q-86 76 -94 89t-8 25z" />
<glyph unicode="&#xfa;" horiz-adv-x="1136" d="M80 827v74q99 4 305 39q-6 -93 -6 -301v-301q0 -113 41 -169t133 -56q96 0 217 106v479q0 59 -10.5 84t-33.5 31t-116 16v74q226 12 332 37v-704q0 -71 16 -90t68 -19h66v-78q-94 -10 -306 -74l-16 13v127q-174 -139 -307 -140q-121 0 -188.5 78.5t-67.5 227.5v415 q0 58 -9.5 83t-27 31t-90.5 17zM478 1099l159 227q63 91 76 99.5t28 8.5t66 -29.5t51 -54.5q0 -13 -7.5 -25t-98.5 -94l-208 -185z" />
<glyph unicode="&#xfb;" horiz-adv-x="1136" d="M80 827v74q99 4 305 39q-6 -93 -6 -301v-301q0 -113 41 -169t133 -56q96 0 217 106v479q0 59 -10.5 84t-33.5 31t-116 16v74q226 12 332 37v-704q0 -71 16 -90t68 -19h66v-78q-94 -10 -306 -74l-16 13v127q-174 -139 -307 -140q-121 0 -188.5 78.5t-67.5 227.5v415 q0 58 -9.5 83t-27 31t-90.5 17zM322 1100q143 205 209 332h78q72 -138 206 -332l-84 -53q-151 198 -161 213l-166 -213z" />
<glyph unicode="&#xfc;" horiz-adv-x="1136" d="M80 827v74q99 4 305 39q-6 -93 -6 -301v-301q0 -113 41 -169t133 -56q96 0 217 106v479q0 59 -10.5 84t-33.5 31t-116 16v74q226 12 332 37v-704q0 -71 16 -90t68 -19h66v-78q-94 -10 -306 -74l-16 13v127q-174 -139 -307 -140q-121 0 -188.5 78.5t-67.5 227.5v415 q0 58 -9.5 83t-27 31t-90.5 17zM256 1220q0 52 34.5 87.5t86.5 35.5q50 0 84.5 -36t34.5 -87q0 -52 -34 -85.5t-85 -33.5q-54 0 -87.5 33t-33.5 86zM647 1220q0 52 34.5 87.5t86.5 35.5q50 0 84.5 -36t34.5 -87q0 -52 -34 -85.5t-85 -33.5q-54 0 -87.5 33t-33.5 86z" />
<glyph unicode="&#xfd;" horiz-adv-x="980" d="M27 848v80h430v-80q-50 -7 -73 -19t-23 -37q0 -12 45 -149l126 -389q200 483 200 539q0 26 -26.5 37t-80.5 18v80h399v-80q-77 -12 -106 -32t-70.5 -96t-153.5 -336.5t-206 -495t-126 -355.5q-13 -55 -77 -55q-49 0 -90 36t-41 76q0 47 51 80q80 55 150.5 179t70.5 178 q0 24 -27 102l-85 251q-58 172 -94.5 273.5t-52.5 130t-47.5 44t-92.5 20.5zM479 1099l159 227q63 91 76 99.5t28 8.5t66 -29.5t51 -54.5q0 -13 -7.5 -25t-98.5 -94l-208 -185z" />
<glyph unicode="&#xfe;" horiz-adv-x="1101" d="M27 -418q104 8 127.5 31t23.5 125v1390q0 104 -20.5 125t-130.5 27v78q158 16 323 65v-589q201 100 227.5 109t65.5 9q158 0 260.5 -122.5t102.5 -282.5q0 -93 -25.5 -176t-75.5 -154t-122 -124.5t-163 -85.5t-124 -32q-25 0 -71 10.5t-75 28.5v-280q0 -100 27 -122 t158 -30v-80h-508v80zM350 182q69 -80 203 -80q112 0 188 88.5t76 251.5q0 190 -71.5 278.5t-194.5 88.5q-105 0 -201 -76v-551z" />
<glyph unicode="&#xff;" horiz-adv-x="980" d="M27 848v80h430v-80q-50 -7 -73 -19t-23 -37q0 -12 45 -149l126 -389q200 483 200 539q0 26 -26.5 37t-80.5 18v80h399v-80q-77 -12 -106 -32t-70.5 -96t-153.5 -336.5t-206 -495t-126 -355.5q-13 -55 -77 -55q-49 0 -90 36t-41 76q0 47 51 80q80 55 150.5 179t70.5 178 q0 24 -27 102l-85 251q-58 172 -94.5 273.5t-52.5 130t-47.5 44t-92.5 20.5zM215 1220q0 52 34.5 87.5t86.5 35.5q50 0 84.5 -36t34.5 -87q0 -52 -34 -85.5t-85 -33.5q-54 0 -87.5 33t-33.5 86zM606 1220q0 52 34.5 87.5t86.5 35.5q50 0 84.5 -36t34.5 -87q0 -52 -34 -85.5 t-85 -33.5q-54 0 -87.5 33t-33.5 86z" />
<glyph unicode="&#x152;" horiz-adv-x="1880" d="M102 641q0 207 92 365.5t258 245.5t369 87q65 0 133 -8q98 -12 189 -12h567q17 -244 23 -299l-88 -8q-27 123 -66 168t-193 45h-149q-47 0 -54 -9t-7 -55v-426h176q89 0 122.5 8.5t45 34t22.5 99.5h88v-394h-88q-13 79 -26 106.5t-45.5 36.5t-118.5 9h-176v-322 q0 -103 13.5 -148.5t56 -59t165.5 -13.5q74 0 119 5t79.5 21.5t71 80.5t60.5 141l86 -12q-28 -183 -68 -328h-649q-97 0 -160 -8q-127 -12 -172 -12q-310 0 -493 185t-183 476zM311 668q0 -274 129 -433t365 -159q56 0 106 13.5t67 41.5t17 96v899q0 54 -8.5 71t-53 30.5 t-140.5 13.5q-226 0 -354 -151t-128 -422z" />
<glyph unicode="&#x153;" horiz-adv-x="1605" d="M96 438q0 234 136.5 374t306.5 140q102 0 188.5 -51.5t138.5 -146.5q142 199 346 198q130 0 226 -100.5t96 -235.5q0 -51 -9 -68t-38.5 -23t-204 -17.5t-348.5 -18.5q0 -183 91 -271.5t218 -88.5q141 0 225 98l50 -61q-76 -95 -166 -143t-166 -48q-215 0 -330 172 q-63 -82 -152.5 -127t-173.5 -45q-190 0 -312 139t-122 324zM297 516q0 -200 73 -320t191 -120q211 0 211 352q0 195 -64.5 310.5t-191.5 115.5q-98 0 -158.5 -89.5t-60.5 -248.5zM946 598l365 6q24 0 30.5 12t6.5 43q0 89 -50 142t-133 53q-76 0 -139 -67.5t-80 -188.5z " />
<glyph unicode="&#x178;" horiz-adv-x="1255" d="M51 1239v80h475v-80q-62 -6 -92 -15t-30 -30q0 -14 11 -38l97 -187q87 -165 143 -262q227 440 228 483q0 26 -33.5 35t-104.5 14v80h459v-80q-72 -7 -108.5 -23t-66 -53.5t-88 -139t-132.5 -242.5t-86 -170t-12 -72v-279q0 -120 30 -146t170 -34v-80h-571v80 q133 8 161.5 34t28.5 146v258q0 49 -20 90l-151 279q-115 219 -142 263t-58 62t-108 27zM328 1575q0 52 35 89.5t88 37.5q49 0 84 -38t35 -89t-34 -85t-85 -34q-54 0 -88.5 33.5t-34.5 85.5zM744 1575q0 52 34.5 89.5t85.5 37.5q49 0 84 -38t35 -89q0 -52 -33.5 -85.5 t-85.5 -33.5q-53 0 -86.5 33.5t-33.5 85.5z" />
<glyph unicode="&#x2c6;" horiz-adv-x="819" d="M162 1077q143 205 209 332h78q72 -138 206 -332l-84 -53q-151 198 -161 213l-166 -213z" />
<glyph unicode="&#x2dc;" horiz-adv-x="817" d="M106 1133q85 164 187 163q48 0 133 -36q79 -33 113 -33q44 0 96 88l80 -49q-77 -166 -191 -166q-37 0 -155 49q-56 23 -86 22q-50 0 -101 -92z" />
<glyph unicode="&#x2000;" horiz-adv-x="928" />
<glyph unicode="&#x2001;" horiz-adv-x="1856" />
<glyph unicode="&#x2002;" horiz-adv-x="928" />
<glyph unicode="&#x2003;" horiz-adv-x="1856" />
<glyph unicode="&#x2004;" horiz-adv-x="618" />
<glyph unicode="&#x2005;" horiz-adv-x="464" />
<glyph unicode="&#x2006;" horiz-adv-x="309" />
<glyph unicode="&#x2007;" horiz-adv-x="309" />
<glyph unicode="&#x2008;" horiz-adv-x="232" />
<glyph unicode="&#x2009;" horiz-adv-x="371" />
<glyph unicode="&#x200a;" horiz-adv-x="103" />
<glyph unicode="&#x2010;" horiz-adv-x="708" d="M111 393v142h487v-142h-487z" />
<glyph unicode="&#x2011;" horiz-adv-x="708" d="M111 393v142h487v-142h-487z" />
<glyph unicode="&#x2012;" horiz-adv-x="708" d="M111 393v142h487v-142h-487z" />
<glyph unicode="&#x2013;" horiz-adv-x="1052" d="M102 406v131h848v-131h-848z" />
<glyph unicode="&#x2014;" horiz-adv-x="2103" d="M102 401v131h1899v-131h-1899z" />
<glyph unicode="&#x2018;" horiz-adv-x="489" d="M86 1137q0 111 81.5 197.5t213.5 123.5l31 -78q-172 -80 -172 -196q0 -58 37.5 -99t99.5 -53q29 -4 29 -49t-30.5 -69.5t-68.5 -24.5q-85 0 -153 70t-68 178z" />
<glyph unicode="&#x2019;" horiz-adv-x="491" d="M80 952q172 80 172 195q0 62 -39 101.5t-98 49.5q-10 2 -19.5 16t-9.5 34q0 44 30 70t68 26q85 0 154.5 -70.5t69.5 -177.5q0 -111 -82 -198t-215 -124z" />
<glyph unicode="&#x201a;" horiz-adv-x="491" d="M78 -207q180 86 180 197q0 61 -40 103t-105 54q-29 4 -29 50q0 48 31 73t67 25q88 0 161 -72.5t73 -181.5q0 -114 -85 -204t-222 -128z" />
<glyph unicode="&#x201c;" horiz-adv-x="894" d="M88 1137q0 111 81.5 197.5t213.5 123.5l31 -78q-172 -80 -172 -196q0 -58 37.5 -99t99.5 -53q29 -4 29 -49q0 -43 -29.5 -68.5t-69.5 -25.5q-85 0 -153 70t-68 178zM489 1137q0 111 81.5 197.5t213.5 123.5l31 -78q-172 -80 -172 -196q0 -58 38 -99t99 -53q29 -4 29 -49 q0 -43 -29 -68.5t-69 -25.5q-85 0 -153.5 70t-68.5 178z" />
<glyph unicode="&#x201d;" horiz-adv-x="897" d="M80 952q172 80 172 195q0 62 -39 101.5t-98 49.5q-10 2 -19.5 16t-9.5 34q0 44 30 70t68 26q85 0 154.5 -70.5t69.5 -177.5q0 -111 -82 -198t-215 -124zM485 952q172 80 172 195q0 60 -37.5 100.5t-99.5 50.5q-29 4 -28 50q0 47 30.5 71.5t67.5 24.5q85 0 154 -70.5 t69 -177.5q0 -111 -82 -198t-215 -124z" />
<glyph unicode="&#x201e;" horiz-adv-x="894" d="M82 -201q176 82 176 191q0 122 -141 153q-29 8 -29 47q0 47 31 72t67 25q85 0 156.5 -71.5t71.5 -176.5q0 -110 -83.5 -198t-217.5 -126zM489 -201q174 83 175 191q0 122 -142 153q-27 4 -26 47q0 46 30 71.5t66 25.5q85 0 156 -71.5t71 -176.5q0 -110 -83.5 -198 t-217.5 -126z" />
<glyph unicode="&#x2022;" horiz-adv-x="659" d="M106 666q0 94 67 161.5t159 67.5q91 0 156 -67.5t65 -161.5q0 -95 -64.5 -162.5t-156.5 -67.5t-159 68t-67 162z" />
<glyph unicode="&#x2026;" horiz-adv-x="2078" d="M209 119q0 61 38.5 102t94.5 41q57 0 96 -41t39 -102q0 -63 -39 -103.5t-96 -40.5q-56 0 -94.5 40.5t-38.5 103.5zM901 119q0 62 38.5 102.5t94.5 40.5q57 0 96 -41t39 -102q0 -62 -38 -103t-97 -41q-56 0 -94.5 40.5t-38.5 103.5zM1593 119q0 61 38.5 102t94.5 41 q57 0 96.5 -41t39.5 -102q0 -62 -38.5 -103t-97.5 -41q-56 0 -94.5 40.5t-38.5 103.5z" />
<glyph unicode="&#x202f;" horiz-adv-x="371" />
<glyph unicode="&#x2039;" horiz-adv-x="581" d="M90 465q155 170 326 412l76 -52l-193 -360l193 -356l-76 -54q-187 265 -326 410z" />
<glyph unicode="&#x203a;" horiz-adv-x="581" d="M90 109l193 356l-193 360l76 52q171 -242 326 -412q-139 -145 -326 -410z" />
<glyph unicode="&#x205f;" horiz-adv-x="464" />
<glyph unicode="&#x2122;" horiz-adv-x="1744" d="M76 1112l16 231h39q8 -25 55 -24h408q36 0 53 24h37l12 -229l-59 -2q-30 93 -50 111t-89 18h-49v-414q0 -82 17.5 -100.5t92.5 -21.5v-60h-344v60q71 3 87.5 21.5t16.5 100.5v414h-51q-61 0 -87 -29t-48 -100h-57zM743 645v60q68 2 80.5 28.5t24.5 218.5t12 223 q0 51 -18 62.5t-74 13.5v68h262l187 -428l182 428h252v-68q-58 -5 -70 -18.5t-12 -79.5l4 -322q0 -86 14 -103.5t76 -22.5v-60h-317v60q66 5 80 21t14 93v389h-4l-228 -551h-49l-211 523h-4q-11 -344 -11 -361q0 -81 18.5 -95.5t84.5 -18.5v-60h-293z" />
<glyph unicode="&#xe000;" horiz-adv-x="926" d="M0 0v927h927v-927h-927z" />
<glyph unicode="&#xfb01;" horiz-adv-x="1157" d="M76 856l57 72h92v24q0 98 33 193t109 172.5t163 116.5t148 39q90 0 168 -46t78 -101q0 -34 -32 -63t-59 -29q-17 0 -30 13q-92 104 -213 105q-87 0 -140 -99.5t-53 -298.5v-26h183q259 0 383 26v-733q0 -92 21 -112t124 -29v-80h-444v80q89 9 108 29t19 112v504 q0 68 -15 86t-82 18h-297v-606q0 -94 18.5 -114t114.5 -29v-80h-442v80q97 11 117 31t20 112v606h-135z" />
<glyph unicode="&#xfb02;" horiz-adv-x="1157" d="M78 858l55 70h92v28q0 142 70.5 270t189 188.5t172.5 60.5q100 0 187 -45q41 11 100 38l19 -12v-1235q0 -92 21.5 -112t125.5 -29v-80h-448v80q92 9 110.5 29t18.5 112v608h-394v-608q0 -92 19 -112t112 -29v-80h-440v80q97 11 117 30.5t20 110.5v608h-133zM397 928h394 v360q-57 80 -175 80q-219 0 -219 -362v-78z" />
</font>
</defs>
</svg>
